<?xml version="1.0" encoding="utf-8"?>
<!-- Generator: Adobe Illustrator 16.0.0, SVG Export Plug-In . SVG Version: 6.00 Build 0)  -->
<!DOCTYPE svg PUBLIC "-//W3C//DTD SVG 1.1//EN" "http://www.w3.org/Graphics/SVG/1.1/DTD/svg11.dtd">
<svg version="1.1" id="Capa_1" xmlns="http://www.w3.org/2000/svg" xmlns:xlink="http://www.w3.org/1999/xlink" x="0px" y="0px"
	 width="512.579px" height="161.636px" viewBox="0 0 512.579 161.636" enable-background="new 0 0 512.579 161.636"
	 xml:space="preserve">
<g>
	<g>
		
			<path fill="#6B6970" stroke="#6B6970" stroke-width="3.7057" stroke-linecap="round" stroke-linejoin="round" stroke-miterlimit="10" d="
			M84.394,99.462c0,2.227-1.483,3.34-4.452,3.34h-8.903C63.83,89.814,55.934,76.003,47.347,61.371H22.848v34.751h4.375
			c3.021,0,4.529,1.112,4.529,3.34c0,2.227-1.506,3.34-4.516,3.34H12.019c-2.961,0-4.438-1.113-4.438-3.34
			c0-2.228,1.483-3.34,4.452-3.34h4.216V16.443h-4.216c-2.969,0-4.452-1.112-4.452-3.34c0-2.226,1.483-3.34,4.452-3.34h35.623
			c7.847,0,14.633,2.281,20.357,6.838c6.15,4.932,9.225,11.241,9.225,18.926c0,10.814-7.66,18.82-22.982,24.016l20.596,36.579h5.09
			C82.911,96.122,84.394,97.234,84.394,99.462z M70.64,35.25c0-5.312-2.608-9.854-7.818-13.626c-4.734-3.453-9.842-5.18-15.319-5.18
			H22.848v38.25h18.27c12.18,0,20.957-3.558,26.328-10.679C69.576,41.2,70.64,38.279,70.64,35.25z"/>
	</g>
	<g>
		
			<path fill="#6B6970" stroke="#6B6970" stroke-width="2.7793" stroke-linecap="round" stroke-linejoin="round" stroke-miterlimit="10" d="
			M151.637,73.259c0,8.109-2.979,15.143-8.936,21.099c-5.954,5.955-13.159,8.934-21.605,8.934c-9.295,0-16.982-2.998-23.063-8.998
			c-6.084-5.997-9.126-13.387-9.126-22.175c0-8.701,2.915-16.114,8.745-22.241c5.827-6.125,13.307-9.186,22.43-9.186
			c5.576,0,10.729,1.329,15.46,3.99s8.488,6.232,11.28,10.709L103.86,84.538l-3.043-4.059l38.666-26.082
			c-4.815-6.095-11.28-9.144-19.395-9.144c-7.522,0-13.754,2.682-18.696,8.047c-4.942,5.365-7.417,11.721-7.417,19.07
			c0,7.267,2.492,13.478,7.48,18.63c4.984,5.152,11.191,7.729,18.626,7.729c7.181,0,13.37-2.512,18.565-7.541
			c5.196-5.024,7.794-11.001,7.794-17.929H151.637z"/>
		
			<path fill="#F28C40" stroke="#F28C40" stroke-width="3.7057" stroke-linecap="round" stroke-linejoin="round" stroke-miterlimit="10" d="
			M199.284,102.024h-8.999c-8.868,0-16.2-2.852-21.985-8.553c-5.788-5.703-8.682-13.073-8.682-22.114
			c0-9.038,2.894-16.411,8.682-22.112c5.785-5.703,13.117-8.553,21.985-8.553h8.999v5.067h-8.745
			c-7.604,0-13.811,2.367-18.626,7.097c-4.814,4.732-7.227,10.897-7.227,18.501c0,7.688,2.391,13.876,7.163,18.565
			s11.002,7.033,18.689,7.033h8.745V102.024z"/>
		
			<path fill="#F28C40" stroke="#F28C40" stroke-width="3.7057" stroke-linecap="round" stroke-linejoin="round" stroke-miterlimit="10" d="
			M240.086,46.521h-5.069c-4.899,0-9.207,2.281-12.923,6.844c-3.723,4.561-5.576,10.307-5.576,17.233v31.427h-4.815V41.958h4.815
			v11.532c1.6-3.209,4.054-5.933,7.35-8.172c3.292-2.239,6.842-3.359,10.642-3.359h5.577V46.521z"/>
		
			<path fill="#F28C40" stroke="#F28C40" stroke-width="3.7057" stroke-linecap="round" stroke-linejoin="round" stroke-miterlimit="10" d="
			M307.124,73.259c0,8.109-2.979,15.143-8.936,21.099c-5.953,5.955-13.158,8.934-21.604,8.934c-9.295,0-16.983-2.998-23.063-8.998
			c-6.084-5.997-9.127-13.387-9.127-22.175c0-8.701,2.916-16.114,8.746-22.241c5.826-6.125,13.307-9.186,22.43-9.186
			c5.576,0,10.729,1.329,15.46,3.99s8.488,6.232,11.28,10.709l-42.963,29.146l-3.042-4.059l38.666-26.082
			c-4.815-6.095-11.28-9.144-19.395-9.144c-7.522,0-13.755,2.682-18.696,8.047c-4.942,5.365-7.417,11.721-7.417,19.07
			c0,7.267,2.492,13.478,7.479,18.63c4.981,5.152,11.192,7.729,18.627,7.729c7.18,0,13.37-2.512,18.565-7.541
			c5.192-5.024,7.794-11.001,7.794-17.929H307.124z"/>
		
			<path fill="#F28C40" stroke="#F28C40" stroke-width="3.7057" stroke-linecap="round" stroke-linejoin="round" stroke-miterlimit="10" d="
			M373.147,102.024h-4.818V71.992c0-7.265-2.303-13.538-6.906-18.818c-4.604-5.279-10.455-7.92-17.551-7.92
			c-6.334,0-11.953,2.578-16.853,7.73c-4.899,5.154-7.353,11.49-7.353,19.009c0,7.521,2.453,13.856,7.353,19.009
			s10.519,7.729,16.853,7.729c3.804,0,7.181-0.717,10.139-2.154c2.957-1.435,5.83-3.631,8.618-6.588v5.701
			c-2.707,2.281-5.471,4.119-8.302,5.514c-2.83,1.394-6.316,2.09-10.455,2.09c-8.195,0-15.121-2.955-20.783-8.871
			c-5.657-5.91-8.491-13.389-8.491-22.429c0-8.954,2.81-16.411,8.429-22.366c5.618-5.958,12.566-8.934,20.846-8.934
			c8.192,0,15.123,2.958,20.783,8.871c5.658,5.913,8.492,13.39,8.492,22.43V102.024z"/>
		
			<path fill="#6B6970" stroke="#6B6970" stroke-width="2.7793" stroke-linecap="round" stroke-linejoin="round" stroke-miterlimit="10" d="
			M436.758,102.024h-4.814v-35.99c0-6.082-1.861-11.065-5.576-14.953c-3.716-3.884-8.281-5.828-13.685-5.828
			c-5.407,0-9.968,1.944-13.688,5.828c-3.719,3.888-5.573,8.871-5.573,14.953v35.99h-4.818V65.402
			c0-7.265,2.302-13.199,6.906-17.805c4.604-4.604,10.328-6.905,17.173-6.905c6.927,0,12.673,2.281,17.233,6.842
			c4.562,4.562,6.842,10.519,6.842,17.868V102.024z"/>
		
			<path fill="#6B6970" stroke="#6B6970" stroke-width="2.7793" stroke-linecap="round" stroke-linejoin="round" stroke-miterlimit="10" d="
			M478.072,102.024h-8.618c-5.662,0-9.99-1.496-12.99-4.49c-2.996-2.994-4.498-7.232-4.498-12.716V25.485h4.815v16.473h21.291v4.563
			h-21.291v38.776c0,3.72,1.058,6.675,3.169,8.87c2.111,2.199,4.942,3.297,8.492,3.297h9.63V102.024z"/>
	</g>
	<g>
		<g>
			<path fill="#F28C40" d="M493.148,8.703c3.395,0,5.94,2,7.639,4.146c1.699,2.145,2.549,4.991,2.549,8.539
				c0,5.027-1.625,10.017-4.875,14.971c-3.247,4.956-6.726,7.545-8.968,8.543c-2.553,1.137-4.393,1.146-4.98,1.218
				c-0.592,0.076-1.111,0.111-1.111,0.111s1.873-0.897,3.209-1.797c7.317-4.938,8.653-9.765,8.752-11.099
				c0.066-0.924-0.553-1.949-0.801-2.104c-0.271-0.169-1.832,0.404-4.07,0.106c-2.634-0.351-4.875-1.107-6.645-3.321
				c-1.773-2.215-2.658-4.797-2.658-7.753c0-3.101,0.959-5.647,2.88-7.643C485.985,10.625,489.013,8.703,493.148,8.703z"/>
			<g>
				<path fill="#6B6970" d="M497.057,9.056c3.237,0,5.545,2.063,6.912,3.793c1.559,1.973,2.349,4.652,2.349,7.963
					c0,4.814-1.589,9.681-4.724,14.464c-3.76,5.742-7.51,7.731-8.568,8.204c-0.298,0.132-0.585,0.248-0.86,0.35
					c7.404-5.418,7.986-10.426,8.029-11.001c0.076-1.002-0.382-2.172-0.851-2.681c-0.317-0.345-0.648-0.419-0.884-0.42
					c-0.197,0-0.415,0.031-0.689,0.071c-0.426,0.062-1.01,0.146-1.773,0.146c-0.479,0-0.976-0.034-1.476-0.101
					c-2.91-0.389-4.662-1.253-6.047-2.982c-1.649-2.066-2.451-4.413-2.451-7.174c0-2.88,0.856-5.17,2.621-7
					C490.238,11.031,492.99,9.056,497.057,9.056 M497.057,8.13c-4.135,0-7.162,1.921-9.08,3.916c-1.922,1.994-2.88,4.541-2.88,7.642
					c0,2.954,0.885,5.536,2.654,7.752c1.772,2.213,4.011,2.97,6.647,3.322c0.597,0.08,1.129,0.109,1.599,0.109
					c1.279,0,2.088-0.217,2.463-0.217c0.003,0,0.005,0,0.007,0c0.296,0.002,0.874,1.181,0.804,2.104
					c-0.099,1.334-1.431,6.162-8.756,11.099c-1.333,0.9-3.204,1.797-3.204,1.797s0.518-0.035,1.109-0.111
					c0.586-0.072,2.426-0.081,4.981-1.216c2.238-0.999,5.722-3.586,8.968-8.542c3.246-4.955,4.875-9.946,4.875-14.972
					c0-3.546-0.854-6.393-2.549-8.538C503,10.128,500.452,8.13,497.057,8.13L497.057,8.13z"/>
			</g>
		</g>
	</g>
	<g>
		<path fill="#6B6970" d="M32.899,150.318c0,0.493-0.335,0.741-1.005,0.741h-2.771v-2.947c-1.717,2.354-3.898,3.529-6.545,3.529
			c-3.034,0-5.287-1.37-6.757-4.111c-0.718-1.328-1.076-2.688-1.076-4.074c0-1.447,0.355-2.817,1.067-4.111
			c0.712-1.293,1.682-2.299,2.911-3.017c1.229-0.718,2.52-1.076,3.872-1.076c2.588,0,4.764,1.177,6.527,3.528v-8.38h-1.446
			c-0.67,0-1.006-0.25-1.006-0.75c0-0.487,0.336-0.731,1.006-0.731h2.946v20.658h1.271
			C32.564,149.577,32.899,149.824,32.899,150.318z M29.124,143.446c0-1.908-0.601-3.504-1.802-4.787s-2.75-1.926-4.646-1.926
			c-1.896,0-3.447,0.643-4.654,1.926c-1.208,1.283-1.811,2.879-1.811,4.787c0,1.896,0.606,3.489,1.819,4.779
			c1.213,1.289,2.762,1.934,4.646,1.934c1.896,0,3.445-0.642,4.646-1.926C28.523,146.95,29.124,145.354,29.124,143.446z"/>
		<path fill="#6B6970" d="M41.777,150.318c0,0.493-0.335,0.741-1.006,0.741h-4.48c-0.659,0-0.988-0.248-0.988-0.741
			c0-0.494,0.332-0.741,0.995-0.741h1.599v-12.314h-1.333c-0.676,0-1.014-0.244-1.014-0.732c0-0.499,0.335-0.749,1.006-0.749h2.805
			v13.796h1.411C41.442,149.577,41.777,149.824,41.777,150.318z M39.572,129.889c0,0.553-0.101,1.07-0.3,1.552
			c-0.259,0.636-0.624,0.953-1.094,0.953c-0.471,0-0.836-0.317-1.094-0.953c-0.188-0.47-0.282-0.987-0.282-1.552
			c0-0.529,0.1-1.041,0.3-1.534c0.259-0.636,0.617-0.953,1.076-0.953c0.47,0,0.835,0.317,1.094,0.953
			C39.471,128.836,39.572,129.348,39.572,129.889z"/>
		<path fill="#6B6970" d="M58.346,146.802c0,1.648-0.824,2.908-2.471,3.779c-1.329,0.707-2.887,1.061-4.675,1.061
			c-2.341,0-4.258-0.594-5.751-1.782c-0.847-0.976-1.271-1.899-1.271-2.77c0-0.706,0.177-1.059,0.529-1.059
			c0.506,0,0.759,0.271,0.759,0.812c0,1.188,0.789,2.105,2.367,2.752c0.919,0.377,2.026,0.564,3.322,0.564
			c1.331,0,2.526-0.229,3.587-0.688c1.425-0.611,2.138-1.5,2.138-2.664c0-1.823-1.885-2.929-5.653-3.316
			c-1.438-0.153-2.491-0.318-3.162-0.494c-2.227-0.6-3.34-1.8-3.34-3.6c0-1.399,0.747-2.481,2.24-3.246
			c1.177-0.6,2.541-0.899,4.094-0.899c2.046,0,3.71,0.5,4.992,1.499c0.941,1.023,1.411,1.9,1.411,2.629
			c0,0.623-0.224,0.936-0.67,0.936c-0.447,0-0.694-0.277-0.741-0.834c-0.07-0.709-0.436-1.294-1.094-1.755
			c-0.952-0.661-2.229-0.993-3.828-0.993c-1.658,0-2.946,0.336-3.863,1.007c-0.694,0.507-1.041,1.071-1.041,1.696
			c0,0.706,0.411,1.295,1.234,1.766c0.576,0.33,1.646,0.584,3.211,0.76c2.094,0.236,3.522,0.488,4.287,0.76
			C57.216,143.522,58.346,144.882,58.346,146.802z"/>
		<path fill="#6B6970" d="M74.916,146.802c0,1.648-0.824,2.908-2.471,3.779c-1.329,0.707-2.887,1.061-4.675,1.061
			c-2.341,0-4.258-0.594-5.751-1.782c-0.847-0.976-1.271-1.899-1.271-2.77c0-0.706,0.177-1.059,0.529-1.059
			c0.506,0,0.759,0.271,0.759,0.812c0,1.188,0.789,2.105,2.367,2.752c0.919,0.377,2.026,0.564,3.322,0.564
			c1.331,0,2.526-0.229,3.587-0.688c1.425-0.611,2.138-1.5,2.138-2.664c0-1.823-1.885-2.929-5.653-3.316
			c-1.438-0.153-2.491-0.318-3.162-0.494c-2.227-0.6-3.34-1.8-3.34-3.6c0-1.399,0.747-2.481,2.24-3.246
			c1.177-0.6,2.541-0.899,4.094-0.899c2.046,0,3.71,0.5,4.992,1.499c0.941,1.023,1.411,1.9,1.411,2.629
			c0,0.623-0.224,0.936-0.67,0.936c-0.447,0-0.694-0.277-0.741-0.834c-0.07-0.709-0.436-1.294-1.094-1.755
			c-0.952-0.661-2.229-0.993-3.828-0.993c-1.658,0-2.946,0.336-3.863,1.007c-0.694,0.507-1.041,1.071-1.041,1.696
			c0,0.706,0.411,1.295,1.234,1.766c0.576,0.33,1.646,0.584,3.211,0.76c2.094,0.236,3.522,0.488,4.287,0.76
			C73.786,143.522,74.916,144.882,74.916,146.802z"/>
		<path fill="#6B6970" d="M93.92,143.755H78.819c0.258,1.994,1.055,3.56,2.391,4.697c1.334,1.139,3.008,1.707,5.019,1.707
			c2.481,0,4.275-0.664,5.381-1.993c0.142-0.177,0.335-0.265,0.582-0.265c0.471,0,0.706,0.246,0.706,0.74
			c0,0.248-0.418,0.777-1.253,1.588c-0.329,0.318-0.876,0.589-1.641,0.812c-1.388,0.398-2.646,0.6-3.775,0.6
			c-2.564,0-4.681-0.776-6.351-2.329c-1.706-1.588-2.559-3.657-2.559-6.21c0-2.34,0.806-4.246,2.417-5.716
			c1.564-1.423,3.528-2.135,5.893-2.135c2.54,0,4.563,0.78,6.068,2.342C93.203,139.155,93.944,141.208,93.92,143.755z
			 M92.42,142.273c-0.294-1.723-1.064-3.085-2.311-4.089c-1.224-0.967-2.718-1.451-4.481-1.451c-1.729,0-3.217,0.499-4.464,1.496
			c-1.246,0.997-2.022,2.346-2.328,4.044H92.42z"/>
		<path fill="#6B6970" d="M113.17,150.318c0,0.493-0.328,0.741-0.984,0.741h-3.253c-0.668,0-1.002-0.248-1.002-0.741
			c0-0.494,0.335-0.741,1.006-0.741h0.882v-9.098c0-1.154-0.425-2.079-1.274-2.773c-0.791-0.648-1.776-0.973-2.957-0.973
			c-1.204,0-2.272,0.348-3.205,1.043c-0.555,0.412-1.363,1.242-2.426,2.49v9.311h0.971c0.658,0,0.988,0.247,0.988,0.741
			c0,0.493-0.328,0.741-0.985,0.741h-3.411c-0.656,0-0.984-0.248-0.984-0.741c0-0.494,0.329-0.741,0.987-0.741h0.971v-12.314h-0.908
			c-0.665,0-0.997-0.25-0.997-0.75c0-0.487,0.329-0.731,0.988-0.731h2.381v2.24c1.826-1.847,3.705-2.77,5.637-2.77
			c2.191,0,3.822,0.823,4.895,2.47c0.53,0.812,0.795,1.652,0.795,2.523v9.332h0.9C112.841,149.577,113.17,149.824,113.17,150.318z"
			/>
		<path fill="#6B6970" d="M131.01,149.577l-0.106-0.035v2.699c0,2.423-1.033,4.164-3.101,5.223
			c-0.717,0.363-1.568,0.547-2.555,0.547h-5.937c-0.658,0-0.986-0.245-0.986-0.732c0-0.5,0.329-0.75,0.987-0.75h5.91
			c1.259,0,2.276-0.4,3.053-1.199c0.775-0.801,1.164-1.83,1.164-3.088v-3.281c-2,1.787-4.158,2.682-6.475,2.682
			c-1.447,0-2.547-0.395-3.299-1.184c-0.977-1.036-1.465-2.244-1.465-3.621v-9.574h-1.475c-0.663,0-0.995-0.25-0.995-0.75
			c0-0.487,0.329-0.731,0.988-0.731h2.946v11.062c0,0.988,0.291,1.787,0.874,2.399c0.584,0.611,1.364,0.917,2.342,0.917
			c2.381,0,4.566-1.076,6.558-3.229v-9.509h0.088v-0.159h-1.499c-0.659,0-0.988-0.25-0.988-0.75c0-0.487,0.329-0.731,0.988-0.731
			h2.981V149.577z"/>
		<path fill="#6B6970" d="M165.579,136.53c0,0.488-0.332,0.732-0.996,0.732h-1.298v14.814c0,2.508-1.282,4.32-3.846,5.438
			c-0.541,0.235-1.265,0.354-2.17,0.354h-5.434c-0.659,0-0.988-0.245-0.988-0.732c0-0.5,0.33-0.749,0.989-0.749h5.496
			c1.802,0,3.169-0.877,4.1-2.629c0.259-0.482,0.389-1.111,0.389-1.889v-4.445c-1.59,2.176-3.64,3.264-6.147,3.264
			c-2.167,0-3.963-0.752-5.388-2.258c-1.401-1.471-2.103-3.293-2.103-5.469s0.707-4.006,2.12-5.487s3.203-2.223,5.37-2.223
			c2.508,0,4.558,1.082,6.147,3.246v-2.717h2.77C165.249,135.781,165.579,136.031,165.579,136.53z M161.821,142.962
			c0-1.793-0.568-3.279-1.705-4.459s-2.595-1.77-4.373-1.77c-1.767,0-3.219,0.593-4.355,1.778s-1.704,2.669-1.704,4.45
			c0,1.793,0.565,3.281,1.695,4.467c1.131,1.186,2.586,1.777,4.364,1.777s3.236-0.592,4.373-1.777S161.821,144.755,161.821,142.962z
			"/>
		<path fill="#6B6970" d="M181.512,137.333l-0.67,1.605c-0.282,0.671-0.612,1-0.988,0.988c-0.364-0.012-0.447-0.312-0.247-0.904
			c0.165-0.473,0.253-0.715,0.265-0.728c0-0.414-0.513-0.792-1.538-1.136c-0.849-0.283-1.532-0.426-2.051-0.426
			c-1.592,0-2.882,0.631-3.872,1.891c-0.225,0.283-0.419,0.589-0.584,0.918v10.035h1.599c0.675,0,1.013,0.247,1.013,0.741
			c0,0.493-0.335,0.741-1.006,0.741h-4.48c-0.659,0-0.988-0.248-0.988-0.741c0-0.494,0.329-0.741,0.988-0.741h1.411v-12.314h-1.156
			c-0.676,0-1.014-0.244-1.014-0.732c0-0.499,0.335-0.749,1.006-0.749h2.628v1.569c1.202-1.398,2.71-2.099,4.525-2.099
			c1.92,0,3.316,0.541,4.188,1.623l0.053-0.212c0.071-0.271,0.212-0.406,0.425-0.406c0.094,0,0.188,0.018,0.282,0.054
			C181.666,136.452,181.736,136.793,181.512,137.333z"/>
		<path fill="#6B6970" d="M201.205,150.3c0,0.506-0.335,0.76-1.006,0.76h-3.104v-2.93c-1.743,2.342-3.904,3.512-6.483,3.512
			c-2.296,0-4.183-0.803-5.661-2.408c-1.478-1.605-2.217-3.549-2.217-5.831c0-2.329,0.733-4.272,2.199-5.831
			c1.467-1.558,3.359-2.337,5.679-2.337c2.556,0,4.717,1.171,6.483,3.511v-3.652h3.104c0.671,0,1.006,0.254,1.006,0.759
			c0,0.506-0.338,0.759-1.013,0.759h-1.634v12.967h1.634C200.867,149.577,201.205,149.818,201.205,150.3z M197.094,143.474
			c0-1.883-0.607-3.473-1.822-4.773c-1.215-1.299-2.76-1.949-4.635-1.949c-1.876,0-3.418,0.65-4.626,1.949
			c-1.209,1.301-1.813,2.891-1.813,4.773c0,1.857,0.602,3.428,1.805,4.71c1.238,1.317,2.782,1.976,4.635,1.976
			c1.863,0,3.405-0.646,4.626-1.94S197.094,145.343,197.094,143.474z M188.943,127.878c0,0.234,0.147,0.477,0.441,0.723l4.182,3.582
			c0.271,0.234,0.487,0.353,0.652,0.353c0.506,0,0.759-0.253,0.759-0.759c0-0.235-0.142-0.477-0.424-0.723l-4.198-3.617
			c-0.247-0.212-0.477-0.318-0.688-0.318C189.184,127.118,188.943,127.372,188.943,127.878z"/>
		<path fill="#6B6970" d="M215.375,130.153c0,0.482-0.259,0.723-0.776,0.723c-0.306,0-0.988-0.117-2.047-0.352
			c-0.317-0.071-0.705-0.106-1.164-0.106c-1.07,0-1.981,0.247-2.734,0.741c-0.87,0.564-1.306,1.357-1.306,2.381v3.652h4.464
			c0.658,0,0.987,0.25,0.987,0.75c0,0.488-0.329,0.732-0.987,0.732h-4.464v10.902h1.218c0.658,0,0.987,0.247,0.987,0.741
			c0,0.493-0.329,0.741-0.987,0.741h-4.005c-0.659,0-0.988-0.248-0.988-0.741c0-0.494,0.329-0.741,0.988-0.741h1.288v-10.902h-0.918
			c-0.659,0-0.988-0.25-0.988-0.75c0-0.488,0.329-0.732,0.988-0.732h0.918v-3.652c0-1.434,0.582-2.581,1.746-3.439
			c1.047-0.788,2.312-1.182,3.793-1.182c0.247,0,1.152,0.129,2.717,0.388C214.951,129.448,215.375,129.729,215.375,130.153z"/>
		<path fill="#6B6970" d="M221.641,150.318c0,0.493-0.335,0.741-1.006,0.741h-4.48c-0.659,0-0.988-0.248-0.988-0.741
			c0-0.494,0.332-0.741,0.995-0.741h1.599v-12.314h-1.333c-0.676,0-1.014-0.244-1.014-0.732c0-0.499,0.335-0.749,1.006-0.749h2.805
			v13.796h1.411C221.306,149.577,221.641,149.824,221.641,150.318z M219.436,129.889c0,0.553-0.101,1.07-0.3,1.552
			c-0.259,0.636-0.624,0.953-1.094,0.953c-0.471,0-0.836-0.317-1.094-0.953c-0.188-0.47-0.282-0.987-0.282-1.552
			c0-0.529,0.1-1.041,0.3-1.534c0.259-0.636,0.617-0.953,1.076-0.953c0.47,0,0.835,0.317,1.094,0.953
			C219.335,128.836,219.436,129.348,219.436,129.889z"/>
		<path fill="#6B6970" d="M240.416,147.831c0,0.506-0.594,1.146-1.782,1.922c-1.917,1.26-4.052,1.889-6.404,1.889
			c-2.446,0-4.422-0.735-5.928-2.205c-1.505-1.471-2.258-3.429-2.258-5.875c0-2.471,0.765-4.473,2.294-6.008
			c1.528-1.535,3.528-2.302,5.998-2.302c2.27,0,4.175,0.677,5.716,2.028v-0.141c0-0.67,0.247-1.006,0.741-1.006
			c0.505,0,0.759,0.336,0.759,1.006v2.646c0,0.67-0.254,1.006-0.76,1.006c-0.447,0-0.695-0.296-0.742-0.887
			c-0.07-0.897-0.807-1.684-2.208-2.356c-1.131-0.544-2.332-0.815-3.604-0.815c-2.049,0-3.683,0.619-4.901,1.855
			c-1.22,1.236-1.828,2.885-1.828,4.945c0,2.026,0.63,3.64,1.89,4.841c1.225,1.19,2.855,1.784,4.893,1.784
			c2.661,0,4.916-0.894,6.765-2.682c0.247-0.234,0.465-0.353,0.653-0.353C240.179,147.125,240.416,147.36,240.416,147.831z"/>
		<path fill="#6B6970" d="M264.063,150.318c0,0.493-0.335,0.741-1.006,0.741h-4.48c-0.659,0-0.988-0.248-0.988-0.741
			c0-0.494,0.332-0.741,0.995-0.741h1.599v-12.314h-1.333c-0.676,0-1.014-0.244-1.014-0.732c0-0.499,0.335-0.749,1.006-0.749h2.805
			v13.796h1.411C263.728,149.577,264.063,149.824,264.063,150.318z M261.858,129.889c0,0.553-0.101,1.07-0.3,1.552
			c-0.259,0.636-0.624,0.953-1.094,0.953c-0.471,0-0.836-0.317-1.094-0.953c-0.188-0.47-0.282-0.987-0.282-1.552
			c0-0.529,0.1-1.041,0.3-1.534c0.259-0.636,0.617-0.953,1.076-0.953c0.47,0,0.835,0.317,1.094,0.953
			C261.757,128.836,261.858,129.348,261.858,129.889z"/>
		<path fill="#6B6970" d="M297.608,147.831c0,0.506-0.594,1.146-1.782,1.922c-1.917,1.26-4.052,1.889-6.404,1.889
			c-2.446,0-4.422-0.735-5.928-2.205c-1.505-1.471-2.258-3.429-2.258-5.875c0-2.471,0.765-4.473,2.294-6.008
			c1.528-1.535,3.528-2.302,5.998-2.302c2.27,0,4.175,0.677,5.716,2.028v-0.141c0-0.67,0.247-1.006,0.741-1.006
			c0.505,0,0.759,0.336,0.759,1.006v2.646c0,0.67-0.254,1.006-0.76,1.006c-0.447,0-0.695-0.296-0.742-0.887
			c-0.07-0.897-0.807-1.684-2.208-2.356c-1.131-0.544-2.332-0.815-3.604-0.815c-2.049,0-3.683,0.619-4.901,1.855
			c-1.22,1.236-1.828,2.885-1.828,4.945c0,2.026,0.63,3.64,1.89,4.841c1.225,1.19,2.855,1.784,4.893,1.784
			c2.661,0,4.916-0.894,6.765-2.682c0.247-0.234,0.465-0.353,0.653-0.353C297.372,147.125,297.608,147.36,297.608,147.831z"/>
		<path fill="#6B6970" d="M316.577,143.456c0,2.352-0.792,4.305-2.373,5.856c-1.582,1.553-3.55,2.329-5.901,2.329
			c-2.376,0-4.352-0.771-5.928-2.312c-1.576-1.54-2.364-3.499-2.364-5.874c0-2.365,0.791-4.322,2.373-5.875s3.555-2.329,5.919-2.329
			s4.334,0.776,5.91,2.329S316.577,141.091,316.577,143.456z M315.077,143.446c0-1.955-0.645-3.562-1.935-4.822
			c-1.289-1.26-2.911-1.891-4.866-1.891s-3.577,0.633-4.867,1.899c-1.289,1.267-1.934,2.87-1.934,4.813s0.647,3.549,1.942,4.814
			c1.296,1.266,2.915,1.898,4.858,1.898c1.955,0,3.577-0.633,4.866-1.898C314.432,146.995,315.077,145.39,315.077,143.446z"/>
		<path fill="#6B6970" d="M344.754,150.318c0,0.493-0.328,0.741-0.985,0.741h-3.252c-0.669,0-1.003-0.248-1.003-0.741
			c0-0.494,0.336-0.741,1.006-0.741h0.882v-9.098c0-1.061-0.38-1.949-1.14-2.668c-0.761-0.719-1.671-1.078-2.731-1.078
			c-0.731,0-1.562,0.348-2.493,1.043c-0.519,0.389-1.249,1.131-2.191,2.226v9.575h0.899c0.658,0,0.988,0.247,0.988,0.741
			c0,0.493-0.329,0.741-0.985,0.741h-3.253c-0.668,0-1.002-0.248-1.002-0.741c0-0.494,0.335-0.741,1.006-0.741h0.882v-9.098
			c0-1.061-0.381-1.949-1.143-2.668s-1.674-1.078-2.736-1.078c-0.732,0-1.565,0.348-2.498,1.043
			c-0.555,0.412-1.363,1.242-2.427,2.49v9.311h0.971c0.658,0,0.988,0.247,0.988,0.741c0,0.493-0.328,0.741-0.985,0.741h-3.411
			c-0.656,0-0.984-0.248-0.984-0.741c0-0.494,0.329-0.741,0.987-0.741h0.971v-12.314h-0.908c-0.665,0-0.997-0.25-0.997-0.75
			c0-0.487,0.329-0.731,0.988-0.731h2.381v2.24c1.013-1.022,1.819-1.717,2.42-2.081c0.753-0.459,1.589-0.688,2.507-0.688
			c1.954,0,3.467,0.823,4.538,2.47c0.129,0.188,0.229,0.365,0.3,0.529c2.084-2,3.814-2.999,5.191-2.999
			c1.954,0,3.467,0.823,4.538,2.47c0.529,0.812,0.795,1.652,0.795,2.523v9.332h0.899
			C344.424,149.577,344.754,149.824,344.754,150.318z"/>
		<path fill="#6B6970" d="M364.305,150.318c0,0.493-0.329,0.741-0.988,0.741h-2.734v-2.17c-2.025,1.834-4.217,2.752-6.572,2.752
			c-1.449,0-2.551-0.395-3.305-1.184c-0.978-1.036-1.467-2.244-1.467-3.621v-9.574h-0.943c-0.665,0-0.997-0.25-0.997-0.75
			c0-0.487,0.329-0.731,0.988-0.731h2.417v11.062c0,0.988,0.292,1.787,0.876,2.399c0.584,0.611,1.366,0.917,2.346,0.917
			c2.42,0,4.639-1.107,6.657-3.32v-9.576h-1.333c-0.664,0-0.995-0.25-0.995-0.75c0-0.487,0.329-0.731,0.987-0.731h2.806v13.796
			h1.263C363.973,149.577,364.305,149.824,364.305,150.318z"/>
		<path fill="#6B6970" d="M383.502,150.318c0,0.493-0.328,0.741-0.984,0.741h-3.253c-0.668,0-1.002-0.248-1.002-0.741
			c0-0.494,0.335-0.741,1.006-0.741h0.882v-9.098c0-1.154-0.425-2.079-1.274-2.773c-0.791-0.648-1.776-0.973-2.957-0.973
			c-1.204,0-2.272,0.348-3.205,1.043c-0.555,0.412-1.363,1.242-2.426,2.49v9.311h0.971c0.658,0,0.988,0.247,0.988,0.741
			c0,0.493-0.328,0.741-0.985,0.741h-3.411c-0.656,0-0.984-0.248-0.984-0.741c0-0.494,0.329-0.741,0.987-0.741h0.971v-12.314h-0.908
			c-0.665,0-0.997-0.25-0.997-0.75c0-0.487,0.329-0.731,0.988-0.731h2.381v2.24c1.826-1.847,3.705-2.77,5.637-2.77
			c2.191,0,3.822,0.823,4.895,2.47c0.53,0.812,0.795,1.652,0.795,2.523v9.332h0.9C383.173,149.577,383.502,149.824,383.502,150.318z
			"/>
		<path fill="#6B6970" d="M392.557,150.318c0,0.493-0.335,0.741-1.006,0.741h-4.48c-0.659,0-0.988-0.248-0.988-0.741
			c0-0.494,0.332-0.741,0.995-0.741h1.599v-12.314h-1.333c-0.676,0-1.014-0.244-1.014-0.732c0-0.499,0.335-0.749,1.006-0.749h2.805
			v13.796h1.411C392.222,149.577,392.557,149.824,392.557,150.318z M390.352,129.889c0,0.553-0.101,1.07-0.3,1.552
			c-0.259,0.636-0.624,0.953-1.094,0.953c-0.471,0-0.836-0.317-1.094-0.953c-0.188-0.47-0.282-0.987-0.282-1.552
			c0-0.529,0.1-1.041,0.3-1.534c0.259-0.636,0.617-0.953,1.076-0.953c0.47,0,0.835,0.317,1.094,0.953
			C390.251,128.836,390.352,129.348,390.352,129.889z"/>
		<path fill="#6B6970" d="M411.332,147.831c0,0.506-0.594,1.146-1.782,1.922c-1.917,1.26-4.052,1.889-6.404,1.889
			c-2.446,0-4.422-0.735-5.928-2.205c-1.505-1.471-2.258-3.429-2.258-5.875c0-2.471,0.765-4.473,2.294-6.008
			c1.528-1.535,3.528-2.302,5.998-2.302c2.27,0,4.175,0.677,5.716,2.028v-0.141c0-0.67,0.247-1.006,0.741-1.006
			c0.505,0,0.759,0.336,0.759,1.006v2.646c0,0.67-0.254,1.006-0.76,1.006c-0.447,0-0.695-0.296-0.742-0.887
			c-0.07-0.897-0.807-1.684-2.208-2.356c-1.131-0.544-2.332-0.815-3.604-0.815c-2.049,0-3.683,0.619-4.901,1.855
			c-1.22,1.236-1.828,2.885-1.828,4.945c0,2.026,0.63,3.64,1.89,4.841c1.225,1.19,2.855,1.784,4.893,1.784
			c2.661,0,4.916-0.894,6.765-2.682c0.247-0.234,0.465-0.353,0.653-0.353C411.095,147.125,411.332,147.36,411.332,147.831z"/>
		<path fill="#6B6970" d="M432.206,150.318c0,0.493-0.33,0.741-0.988,0.741h-3.123v-2.912c-1.73,2.33-3.892,3.494-6.482,3.494
			c-2.284,0-4.181-0.812-5.688-2.436c-1.46-1.575-2.19-3.516-2.19-5.821c0-2.317,0.736-4.251,2.208-5.804s3.362-2.329,5.67-2.329
			c2.532,0,4.692,1.164,6.482,3.493v-3.652h3.123c0.658,0,0.988,0.244,0.988,0.732c0,0.5-0.332,0.75-0.995,0.75h-1.651v13.002h1.651
			C431.874,149.577,432.206,149.824,432.206,150.318z M428.094,143.446c0-1.884-0.602-3.462-1.807-4.734
			c-1.229-1.318-2.775-1.979-4.642-1.979c-1.877,0-3.422,0.648-4.632,1.943c-1.211,1.296-1.815,2.886-1.815,4.77
			c0,1.885,0.607,3.475,1.824,4.77c1.216,1.296,2.757,1.943,4.623,1.943s3.413-0.659,4.642-1.979
			C427.493,146.909,428.094,145.331,428.094,143.446z"/>
		<path fill="#6B6970" d="M450.962,147.831c0,0.506-0.594,1.146-1.782,1.922c-1.917,1.26-4.052,1.889-6.404,1.889
			c-2.446,0-4.422-0.735-5.928-2.205c-1.505-1.471-2.258-3.429-2.258-5.875c0-2.471,0.765-4.473,2.294-6.008
			c1.528-1.535,3.528-2.302,5.998-2.302c2.27,0,4.175,0.677,5.716,2.028v-0.141c0-0.67,0.247-1.006,0.741-1.006
			c0.505,0,0.759,0.336,0.759,1.006v2.646c0,0.67-0.254,1.006-0.76,1.006c-0.447,0-0.695-0.296-0.742-0.887
			c-0.07-0.897-0.807-1.684-2.208-2.356c-1.131-0.544-2.332-0.815-3.604-0.815c-2.049,0-3.683,0.619-4.901,1.855
			c-1.22,1.236-1.828,2.885-1.828,4.945c0,2.026,0.63,3.64,1.89,4.841c1.225,1.19,2.855,1.784,4.893,1.784
			c2.661,0,4.916-0.894,6.765-2.682c0.247-0.234,0.465-0.353,0.653-0.353C450.726,147.125,450.962,147.36,450.962,147.831z"/>
		<path fill="#6B6970" d="M459.84,150.318c0,0.493-0.335,0.741-1.006,0.741h-4.48c-0.659,0-0.988-0.248-0.988-0.741
			c0-0.494,0.332-0.741,0.995-0.741h1.599v-12.314h-1.333c-0.676,0-1.014-0.244-1.014-0.732c0-0.499,0.335-0.749,1.006-0.749h2.805
			v13.796h1.411C459.505,149.577,459.84,149.824,459.84,150.318z M457.635,129.889c0,0.553-0.101,1.07-0.3,1.552
			c-0.259,0.636-0.624,0.953-1.094,0.953c-0.471,0-0.836-0.317-1.094-0.953c-0.188-0.47-0.282-0.987-0.282-1.552
			c0-0.529,0.1-1.041,0.3-1.534c0.259-0.636,0.617-0.953,1.076-0.953c0.47,0,0.835,0.317,1.094,0.953
			C457.535,128.836,457.635,129.348,457.635,129.889z"/>
		<path fill="#6B6970" d="M478.809,143.456c0,2.352-0.792,4.305-2.373,5.856c-1.582,1.553-3.55,2.329-5.901,2.329
			c-2.376,0-4.352-0.771-5.928-2.312c-1.576-1.54-2.364-3.499-2.364-5.874c0-2.365,0.791-4.322,2.373-5.875s3.555-2.329,5.919-2.329
			s4.334,0.776,5.91,2.329S478.809,141.091,478.809,143.456z M477.309,143.446c0-1.955-0.645-3.562-1.935-4.822
			c-1.289-1.26-2.911-1.891-4.866-1.891s-3.577,0.633-4.867,1.899c-1.289,1.267-1.934,2.87-1.934,4.813s0.647,3.549,1.942,4.814
			c1.296,1.266,2.915,1.898,4.858,1.898c1.955,0,3.577-0.633,4.866-1.898C476.665,146.995,477.309,145.39,477.309,143.446z
			 M473.463,127.878c0,0.235-0.147,0.477-0.44,0.725l-4.183,3.579c-0.271,0.235-0.488,0.354-0.652,0.354
			c-0.506,0-0.759-0.253-0.759-0.759c0-0.235,0.142-0.477,0.424-0.723l4.198-3.617c0.247-0.212,0.477-0.318,0.688-0.318
			C473.222,127.118,473.463,127.372,473.463,127.878z"/>
	</g>
</g>
<g>
</g>
<g>
</g>
<g>
</g>
<g>
</g>
<g>
</g>
<g>
</g>
</svg>
