<?xml version="1.0" encoding="utf-8"?>
<!-- Generator: Adobe Illustrator 16.0.0, SVG Export Plug-In . SVG Version: 6.00 Build 0)  -->
<!DOCTYPE svg PUBLIC "-//W3C//DTD SVG 1.1//EN" "http://www.w3.org/Graphics/SVG/1.1/DTD/svg11.dtd">
<svg version="1.1" id="Capa_1" xmlns="http://www.w3.org/2000/svg" xmlns:xlink="http://www.w3.org/1999/xlink" x="0px" y="0px"
	 width="31.324px" height="38.35px" viewBox="0 0 31.324 38.35" enable-background="new 0 0 31.324 38.35" xml:space="preserve">
<g>
	<g>
		<g>
			<path fill="#FFFFFF" d="M22.473,28.164c4.604-2.443,7.736-7.285,7.736-12.857c0-8.035-6.512-14.549-14.547-14.549
				c-8.033,0-14.547,6.514-14.547,14.549c0,5.695,3.273,10.627,8.043,13.016l2.045,9.27h8.918L22.473,28.164z"/>
		</g>
	</g>
	<g>
		<g>
			
				<line fill="none" stroke="#F28C40" stroke-linecap="round" stroke-linejoin="round" stroke-miterlimit="10" x1="9.529" y1="31.418" x2="21.795" y2="31.418"/>
			
				<line fill="none" stroke="#F28C40" stroke-linecap="round" stroke-linejoin="round" stroke-miterlimit="10" x1="9.529" y1="34.484" x2="21.795" y2="34.484"/>
			
				<line fill="none" stroke="#F28C40" stroke-width="2" stroke-linecap="round" stroke-linejoin="round" stroke-miterlimit="10" x1="11.203" y1="37.592" x2="20.121" y2="37.592"/>
			<path fill="none" stroke="#F28C40" stroke-linecap="round" stroke-linejoin="round" stroke-miterlimit="10" d="M9.158,28.322
				c-4.77-2.389-8.043-7.32-8.043-13.016c0-8.035,6.514-14.549,14.547-14.549c8.035,0,14.547,6.514,14.547,14.549
				c0,5.572-3.133,10.414-7.736,12.857"/>
		</g>
	</g>
</g>
</svg>
