<?xml version="1.0" encoding="utf-8"?>
<!-- Generator: Adobe Illustrator 16.0.0, SVG Export Plug-In . SVG Version: 6.00 Build 0)  -->
<!DOCTYPE svg PUBLIC "-//W3C//DTD SVG 1.1//EN" "http://www.w3.org/Graphics/SVG/1.1/DTD/svg11.dtd">
<svg version="1.1" id="Capa_1" xmlns="http://www.w3.org/2000/svg" xmlns:xlink="http://www.w3.org/1999/xlink" x="0px" y="0px"
	 width="78.673px" height="63.824px" viewBox="0 0 78.673 63.824" enable-background="new 0 0 78.673 63.824" xml:space="preserve">
<g>
	<path fill="#FFFFFF" stroke="#F28C40" stroke-linecap="round" stroke-linejoin="round" stroke-miterlimit="10" d="M57.571,19.345
		c-10.617,3.082-41.436,0-41.436,0L3.038,21.399c-0.803,0-1.455,0.652-1.455,1.455v18.234c0,0.805,0.652,1.457,1.455,1.457
		l13.098,2.053c0,0,4.158-0.432,9.945-0.824c-0.004,0.047-0.014,0.092-0.014,0.141v17.121c0,0.803,0.652,1.457,1.457,1.457h3.244
		c0.803,0,1.455-0.654,1.455-1.457V43.915c0-0.174-0.035-0.34-0.092-0.496c9.201-0.447,19.986-0.521,25.439,1.061
		c10.615,3.082,19.52,18.492,19.52,18.492v-31v-0.119v-31C77.091,0.853,68.187,16.263,57.571,19.345z"/>
	
		<line fill="#FFFFFF" stroke="#F28C40" stroke-linecap="round" stroke-linejoin="round" stroke-miterlimit="10" x1="16.222" y1="20.2" x2="16.222" y2="43.144"/>
</g>
</svg>
