<?xml version="1.0" encoding="utf-8"?>
<!-- Generator: Adobe Illustrator 16.0.0, SVG Export Plug-In . SVG Version: 6.00 Build 0)  -->
<!DOCTYPE svg PUBLIC "-//W3C//DTD SVG 1.1//EN" "http://www.w3.org/Graphics/SVG/1.1/DTD/svg11.dtd">
<svg version="1.1" id="Capa_1" xmlns="http://www.w3.org/2000/svg" xmlns:xlink="http://www.w3.org/1999/xlink" x="0px" y="0px"
	 width="41.533px" height="38.35px" viewBox="0 0 41.533 38.35" enable-background="new 0 0 41.533 38.35" xml:space="preserve">
<g>
	<g>
		<rect x="7.953" y="20.313" fill="#FFFFFF" width="25.625" height="17.162"/>
		<g>
			<g>
				<g>
					<circle fill="#FFFFFF" cx="8.352" cy="24.218" r="6.629"/>
					<path fill="#FFFFFF" d="M1.723,37.476c0-3.662,2.967-6.629,6.629-6.629s6.629,2.967,6.629,6.629"/>
				</g>
				<g>
					<circle fill="#FFFFFF" cx="33.182" cy="24.216" r="6.629"/>
					<path fill="#FFFFFF" d="M26.553,37.476c0-3.662,2.967-6.631,6.629-6.631s6.629,2.969,6.629,6.631"/>
				</g>
				<g>
					<circle fill="#FFFFFF" cx="20.813" cy="7.503" r="6.63"/>
					<path fill="#FFFFFF" d="M14.184,20.761c0-3.662,2.969-6.629,6.631-6.629c3.66,0,6.629,2.967,6.629,6.629"/>
				</g>
			</g>
		</g>
	</g>
	<g>
		<g>
			<g>
				<circle fill="none" stroke="#F28C40" stroke-miterlimit="10" cx="8.352" cy="24.218" r="6.629"/>
				<path fill="none" stroke="#F28C40" stroke-linecap="round" stroke-linejoin="round" stroke-miterlimit="10" d="M1.723,37.476
					c0-3.662,2.967-6.629,6.629-6.629s6.629,2.967,6.629,6.629"/>
			</g>
			<g>
				<circle fill="none" stroke="#F28C40" stroke-miterlimit="10" cx="33.182" cy="24.216" r="6.629"/>
				<path fill="none" stroke="#F28C40" stroke-linecap="round" stroke-linejoin="round" stroke-miterlimit="10" d="M26.553,37.476
					c0-3.662,2.967-6.631,6.629-6.631s6.629,2.969,6.629,6.631"/>
			</g>
			<g>
				<circle fill="none" stroke="#F28C40" stroke-miterlimit="10" cx="20.813" cy="7.503" r="6.63"/>
				<path fill="none" stroke="#F28C40" stroke-linecap="round" stroke-linejoin="round" stroke-miterlimit="10" d="M14.184,20.761
					c0-3.662,2.969-6.629,6.631-6.629c3.66,0,6.629,2.967,6.629,6.629"/>
			</g>
		</g>
	</g>
</g>
</svg>
