<?xml version="1.0" encoding="utf-8"?>
<!-- Generator: Adobe Illustrator 16.0.0, SVG Export Plug-In . SVG Version: 6.00 Build 0)  -->
<!DOCTYPE svg PUBLIC "-//W3C//DTD SVG 1.1//EN" "http://www.w3.org/Graphics/SVG/1.1/DTD/svg11.dtd">
<svg version="1.1" id="Capa_1" xmlns="http://www.w3.org/2000/svg" xmlns:xlink="http://www.w3.org/1999/xlink" x="0px" y="0px"
	 width="41.533px" height="38.35px" viewBox="0 0 41.533 38.35" enable-background="new 0 0 41.533 38.35" xml:space="preserve">
<g>
	<g>
		<g>
			<path fill="#FFFFFF" d="M12.163,35.325L3.13,36.812l1.486-9.033l2.518-2.516L29.591,2.804c1.688-1.688,4.424-1.688,6.113,0.002
				l1.432,1.434c1.689,1.688,1.689,4.424,0.002,6.111L14.681,32.808L12.163,35.325z"/>
		</g>
	</g>
	<g>
		<g>
			
				<path fill="none" stroke="#F28C40" stroke-width="0.9393" stroke-linecap="round" stroke-linejoin="round" stroke-miterlimit="10" d="
				M7.134,25.263L29.591,2.804c1.688-1.688,4.424-1.688,6.113,0.002l1.432,1.434c1.689,1.688,1.689,4.424,0.002,6.111L14.681,32.808
				"/>
			
				<polyline fill="none" stroke="#F28C40" stroke-width="0.9393" stroke-linecap="round" stroke-linejoin="round" stroke-miterlimit="10" points="
				4.616,27.778 3.13,36.812 12.163,35.325 			"/>
			
				<line fill="none" stroke="#F28C40" stroke-width="0.9393" stroke-linecap="round" stroke-linejoin="round" stroke-miterlimit="10" x1="32.108" y1="7.835" x2="12.794" y2="27.149"/>
		</g>
	</g>
</g>
</svg>
