<?xml version="1.0" encoding="utf-8"?>
<!-- Generator: Adobe Illustrator 16.0.0, SVG Export Plug-In . SVG Version: 6.00 Build 0)  -->
<!DOCTYPE svg PUBLIC "-//W3C//DTD SVG 1.1//EN" "http://www.w3.org/Graphics/SVG/1.1/DTD/svg11.dtd">
<svg version="1.1" id="Capa_1" xmlns="http://www.w3.org/2000/svg" xmlns:xlink="http://www.w3.org/1999/xlink" x="0px" y="0px"
	 width="49.348px" height="76.527px" viewBox="0 0 49.348 76.527" enable-background="new 0 0 49.348 76.527" xml:space="preserve">
<g>
	<path fill="#FFFFFF" stroke="#F28C40" stroke-linecap="round" stroke-linejoin="round" stroke-miterlimit="10" d="M42.231,74.047
		c0,0.699-0.566,1.266-1.266,1.266H8.978c-0.699,0-1.266-0.566-1.266-1.266v-5.505c0-0.697,0.566-1.265,1.266-1.265h31.988
		c0.699,0,1.266,0.567,1.266,1.265V74.047z"/>
	<path fill="#FFFFFF" stroke="#F28C40" stroke-linecap="round" stroke-linejoin="round" stroke-miterlimit="10" d="M40.148,66.385
		l7.886-23.211L25.865,1.214v35.71l-0.006,0.125c0,0.692-0.481,1.252-1.173,1.252s-1.198-0.561-1.198-1.252l-0.005-0.125V1.214
		L1.314,43.173L9.2,66.385"/>
</g>
</svg>
