<svg xmlns="http://www.w3.org/2000/svg" width="225" height="73"><path fill="#6B6970" stroke="#6B6970" stroke-width="1.416" stroke-linecap="round" stroke-linejoin="round" stroke-miterlimit="10" d="M222.5 47.858h-4.439c-2.917 0-5.149-.771-6.693-2.314-1.545-1.542-2.317-3.726-2.317-6.552V8.419h2.481v8.488H222.5v2.351h-10.969v19.981c0 1.917.543 3.439 1.633 4.57 1.086 1.134 2.545 1.698 4.374 1.698h4.962v2.351z"/><path fill="#F28C40" d="M197.364 1.406c1.729 0 3.026 1.02 3.892 2.112.864 1.092 1.298 2.541 1.298 4.348 0 2.562-.828 5.103-2.483 7.626-1.653 2.524-3.427 3.843-4.567 4.351-1.301.579-2.237.585-2.538.621-.301.039-.564.056-.564.056s.953-.456 1.633-.915c3.729-2.515 4.408-4.974 4.459-5.652.034-.471-.281-.994-.408-1.073-.138-.085-.935.206-2.073.055-1.342-.178-2.482-.563-3.385-1.691-.903-1.128-1.353-2.443-1.353-3.949 0-1.579.488-2.876 1.465-3.892s2.519-1.997 4.624-1.997z"/><path fill="#6B6970" d="M199.354 1.586c1.646 0 2.824 1.051 3.522 1.931.794 1.006 1.196 2.371 1.196 4.057 0 2.452-.81 4.931-2.407 7.368-1.92 2.931-3.826 3.938-4.365 4.178a6.999 6.999 0 01-.435.177c3.771-2.76 4.065-5.309 4.087-5.602.039-.513-.195-1.109-.435-1.368a.597.597 0 00-.448-.211c-.083 0-.2.014-.352.036a5.98 5.98 0 01-.9.073c-.245 0-.499-.017-.755-.051-1.481-.197-2.373-.638-3.079-1.52-.84-1.05-1.249-2.246-1.249-3.653 0-1.466.437-2.632 1.334-3.564.813-.845 2.215-1.851 4.286-1.851m0-.472c-2.105 0-3.648.979-4.625 1.995-.977 1.015-1.466 2.312-1.466 3.892 0 1.506.45 2.82 1.353 3.948s2.044 1.514 3.385 1.692c.306.041.577.055.817.055.649 0 1.061-.109 1.252-.109h.004c.149 0 .444.601.408 1.071-.05.68-.729 3.139-4.459 5.653-.68.459-1.633.915-1.633.915s.264-.017.565-.056c.3-.038 1.237-.042 2.537-.621 1.142-.507 2.914-1.826 4.567-4.351 1.654-2.523 2.484-5.064 2.484-7.626 0-1.807-.435-3.256-1.298-4.35-.863-1.089-2.161-2.108-3.891-2.108z"/><path fill="#6B6970" stroke="#6B6970" stroke-width="1.887" stroke-linecap="round" stroke-linejoin="round" stroke-miterlimit="10" d="M41.41 47.035c0 1.127-.752 1.69-2.256 1.69h-4.511a1013.56 1013.56 0 00-11.999-20.986h-12.41v17.603h2.215c1.529 0 2.296.564 2.296 1.693 0 1.127-.763 1.69-2.288 1.69H4.748c-1.499 0-2.248-.563-2.248-1.69 0-1.129.752-1.693 2.256-1.693h2.135V4.982H4.756C3.252 4.982 2.5 4.418 2.5 3.29s.752-1.691 2.256-1.691h18.045c3.974 0 7.411 1.154 10.312 3.464 3.115 2.497 4.673 5.693 4.673 9.587 0 5.479-3.881 9.532-11.641 12.164l10.432 18.528h2.578c1.503 0 2.255.564 2.255 1.693zm-6.969-32.527c0-2.691-1.32-4.991-3.96-6.902-2.397-1.748-4.985-2.623-7.759-2.623H10.234v19.375h9.254c6.17 0 10.615-1.804 13.337-5.41 1.077-1.427 1.616-2.905 1.616-4.44z"/><path fill="#6B6970" stroke="#6B6970" stroke-width="1.416" stroke-linecap="round" stroke-linejoin="round" stroke-miterlimit="10" d="M75.713 33.323c0 4.099-1.506 7.651-4.515 10.662-3.01 3.009-6.649 4.514-10.917 4.514-4.696 0-8.581-1.516-11.654-4.546-3.073-3.031-4.609-6.766-4.609-11.205 0-4.397 1.472-8.143 4.417-11.239 2.945-3.095 6.724-4.642 11.334-4.642 2.817 0 5.421.672 7.812 2.017s4.291 3.148 5.699 5.411L51.572 39.022l-1.537-2.051 19.538-13.179c-2.436-3.081-5.702-4.62-9.802-4.62-3.8 0-6.949 1.355-9.447 4.064-2.498 2.712-3.746 5.924-3.746 9.638 0 3.672 1.26 6.81 3.777 9.413 2.518 2.604 5.656 3.905 9.413 3.905 3.628 0 6.756-1.27 9.38-3.81 2.627-2.54 3.938-5.561 3.938-9.061h2.627z"/><path fill="#F28C40" stroke="#F28C40" stroke-width="1.887" stroke-linecap="round" stroke-linejoin="round" stroke-miterlimit="10" d="M100.162 48.437h-4.631c-4.566 0-8.339-1.466-11.316-4.402-2.98-2.935-4.469-6.729-4.469-11.382 0-4.652 1.488-8.447 4.469-11.384 2.978-2.934 6.75-4.401 11.316-4.401h4.631v2.609h-4.5c-3.914 0-7.111 1.217-9.588 3.651-2.48 2.438-3.719 5.609-3.719 9.524 0 3.957 1.229 7.143 3.686 9.556 2.455 2.413 5.663 3.619 9.621 3.619h4.5v2.61zM120.777 19.241h-2.673c-2.585 0-4.858 1.203-6.818 3.609-1.962 2.406-2.941 5.438-2.941 9.091v16.576h-2.539V16.835h2.539v6.083c.846-1.693 2.139-3.13 3.877-4.312 1.738-1.18 3.609-1.771 5.615-1.771h2.94v2.406zM155.223 33.323c0 4.099-1.505 7.651-4.514 10.662-3.01 3.009-6.649 4.514-10.918 4.514-4.697 0-8.58-1.516-11.653-4.546-3.075-3.031-4.61-6.766-4.61-11.205 0-4.397 1.473-8.143 4.418-11.239 2.945-3.095 6.724-4.642 11.334-4.642 2.816 0 5.42.672 7.812 2.017 2.39 1.345 4.29 3.148 5.698 5.411l-21.706 14.728-1.537-2.051 19.538-13.179c-2.436-3.081-5.702-4.62-9.802-4.62-3.801 0-6.95 1.355-9.447 4.064-2.498 2.712-3.747 5.924-3.747 9.638 0 3.672 1.259 6.81 3.777 9.413 2.519 2.604 5.657 3.905 9.414 3.905 3.627 0 6.755-1.27 9.38-3.81 2.626-2.54 3.938-5.561 3.938-9.061h2.625zM188.584 47.858h-2.434V32.684c0-3.672-1.163-6.841-3.49-9.51-2.326-2.667-5.281-4.001-8.868-4.001-3.201 0-6.042 1.302-8.516 3.905-2.476 2.604-3.715 5.806-3.715 9.605 0 3.799 1.239 7.001 3.715 9.604 2.474 2.604 5.314 3.905 8.516 3.905 1.921 0 3.627-.361 5.122-1.088 1.495-.725 2.946-1.835 4.355-3.33v2.881c-1.367 1.152-2.766 2.081-4.195 2.787-1.43.703-3.191 1.056-5.282 1.056-4.141 0-7.643-1.494-10.501-4.481-2.86-2.987-4.29-6.767-4.29-11.334 0-4.525 1.419-8.293 4.258-11.303 2.838-3.01 6.349-4.514 10.533-4.514 4.14 0 7.642 1.494 10.501 4.482 2.859 2.989 4.291 6.766 4.291 11.334v15.176z"/><g fill="#6B6970"><path d="M11.896 68.884c0 .232-.157.349-.473.349h-1.302v-1.385c-.808 1.105-1.833 1.658-3.078 1.658-1.426 0-2.485-.644-3.177-1.933a3.995 3.995 0 01-.506-1.916c0-.68.167-1.324.502-1.933s.791-1.081 1.369-1.418a3.55 3.55 0 011.82-.506c1.217 0 2.239.553 3.069 1.658V59.52h-.679c-.315 0-.473-.117-.473-.353 0-.229.157-.345.473-.345h1.386v9.714h.597c.315 0 .472.115.472.348zm-1.774-3.231c0-.897-.283-1.647-.848-2.251s-1.293-.905-2.185-.905-1.621.302-2.188.905-.851 1.354-.851 2.251c0 .892.285 1.641.855 2.247.57.605 1.299.909 2.185.909.892 0 1.62-.302 2.185-.905s.847-1.353.847-2.251zM16.07 68.884c0 .232-.157.349-.473.349h-2.106c-.31 0-.465-.116-.465-.349s.156-.348.468-.348h.752v-5.79h-.627c-.317 0-.477-.115-.477-.345 0-.234.158-.353.473-.353h1.319v6.487h.663c.316.001.473.116.473.349zm-1.036-9.606c0 .261-.047.504-.142.73-.121.299-.293.448-.514.448-.222 0-.393-.149-.515-.448a1.94 1.94 0 01-.133-.73c0-.248.047-.489.142-.721.121-.299.29-.448.506-.448.221 0 .393.149.514.448.095.227.142.467.142.721zM23.861 67.23c0 .775-.388 1.368-1.161 1.777-.625.332-1.358.498-2.198.498-1.101 0-2.002-.279-2.704-.838-.398-.459-.598-.893-.598-1.302 0-.332.083-.498.249-.498.237 0 .356.128.356.382 0 .559.371.99 1.113 1.294.432.177.953.266 1.562.266.626 0 1.188-.108 1.687-.323.671-.288 1.006-.705 1.006-1.253 0-.857-.887-1.377-2.658-1.56-.676-.071-1.172-.149-1.487-.232-1.047-.281-1.569-.846-1.569-1.691 0-.658.351-1.167 1.053-1.526.553-.282 1.194-.423 1.925-.423.962 0 1.744.234 2.348.705.441.48.663.893.663 1.235 0 .293-.105.439-.315.439s-.326-.13-.348-.392c-.033-.333-.205-.608-.515-.825-.448-.312-1.048-.467-1.8-.467-.78 0-1.386.158-1.816.474-.327.238-.49.504-.49.797 0 .332.194.609.581.83.271.155.774.274 1.51.357.984.111 1.656.23 2.016.357 1.059.377 1.59 1.017 1.59 1.919zM31.651 67.23c0 .775-.388 1.368-1.161 1.777-.625.332-1.358.498-2.198.498-1.101 0-2.002-.279-2.704-.838-.398-.459-.598-.893-.598-1.302 0-.332.083-.498.249-.498.237 0 .356.128.356.382 0 .559.371.99 1.113 1.294.432.177.953.266 1.562.266.626 0 1.188-.108 1.687-.323.671-.288 1.006-.705 1.006-1.253 0-.857-.887-1.377-2.658-1.56-.676-.071-1.172-.149-1.487-.232-1.047-.281-1.569-.846-1.569-1.691 0-.658.351-1.167 1.053-1.526.553-.282 1.194-.423 1.925-.423.962 0 1.744.234 2.348.705.441.48.663.893.663 1.235 0 .293-.105.439-.315.439s-.326-.13-.348-.392c-.033-.333-.205-.608-.515-.825-.448-.312-1.048-.467-1.8-.467-.78 0-1.386.158-1.816.474-.327.238-.49.504-.49.797 0 .332.194.609.581.83.271.155.774.274 1.51.357.984.111 1.656.23 2.016.357 1.059.377 1.59 1.017 1.59 1.919zM40.587 65.799h-7.101c.122.937.496 1.673 1.124 2.208s1.414.803 2.36.803c1.166 0 2.01-.312 2.529-.938a.33.33 0 01.273-.124c.222 0 .332.116.332.348 0 .116-.196.365-.589.747-.154.149-.412.276-.771.382-.652.188-1.244.281-1.774.281-1.206 0-2.201-.364-2.986-1.095-.802-.746-1.203-1.72-1.203-2.92 0-1.1.379-1.996 1.137-2.688.735-.669 1.659-1.003 2.771-1.003 1.194 0 2.146.366 2.854 1.101.706.735 1.055 1.7 1.044 2.898zm-.705-.697c-.139-.81-.501-1.45-1.087-1.922-.575-.455-1.277-.683-2.106-.683-.813 0-1.513.234-2.099.703s-.951 1.103-1.095 1.901h6.387zM49.638 68.884c0 .232-.154.349-.463.349h-1.529c-.314 0-.472-.116-.472-.349s.158-.348.473-.348h.415v-4.278c0-.542-.2-.978-.6-1.304-.372-.305-.835-.457-1.39-.457-.566 0-1.068.163-1.507.49-.261.193-.642.584-1.141 1.171v4.378h.456c.31 0 .465.115.465.348s-.154.349-.463.349h-1.604c-.309 0-.463-.116-.463-.349s.155-.348.465-.348h.456v-5.79h-.426c-.312 0-.469-.117-.469-.353 0-.229.154-.345.464-.345h1.12v1.054c.858-.868 1.741-1.302 2.65-1.302 1.03 0 1.797.387 2.301 1.161.249.381.374.776.374 1.186v4.389h.423c.309 0 .465.115.465.348zM58.025 68.536l-.05-.017v1.269c0 1.14-.485 1.958-1.457 2.455-.337.172-.737.258-1.201.258h-2.792c-.309 0-.464-.115-.464-.345 0-.235.155-.353.465-.353h2.778c.592 0 1.07-.188 1.436-.564.365-.376.547-.859.547-1.451v-1.543c-.939.841-1.954 1.261-3.044 1.261-.68 0-1.197-.186-1.551-.556a2.405 2.405 0 01-.688-1.703v-4.501h-.693c-.312 0-.468-.117-.468-.353 0-.229.154-.345.464-.345h1.386v5.201c0 .465.137.841.411 1.128.274.288.642.432 1.101.432 1.119 0 2.147-.506 3.083-1.519v-4.47h.042v-.074h-.705c-.31 0-.465-.117-.465-.353 0-.229.155-.345.465-.345h1.401v6.488zM74.277 62.401c0 .229-.156.345-.468.345h-.61v6.965c0 1.179-.603 2.031-1.809 2.558-.254.11-.595.166-1.02.166h-2.556c-.31 0-.464-.115-.464-.345 0-.235.154-.353.465-.353H70.4c.848 0 1.49-.412 1.928-1.235.122-.228.183-.523.183-.888v-2.091c-.748 1.023-1.711 1.535-2.891 1.535-1.019 0-1.863-.354-2.533-1.062-.658-.69-.988-1.548-.988-2.571 0-1.022.332-1.883.997-2.579.664-.697 1.506-1.045 2.524-1.045 1.18 0 2.143.509 2.891 1.525v-1.277h1.302c.309 0 .464.118.464.352zm-1.766 3.024c0-.843-.268-1.541-.802-2.096s-1.22-.832-2.056-.832c-.831 0-1.514.278-2.048.836s-.802 1.255-.802 2.092c0 .844.266 1.543.798 2.101.531.558 1.216.836 2.052.836s1.521-.278 2.056-.836.802-1.257.802-2.101zM81.77 62.779l-.314.755c-.133.315-.288.47-.465.464-.172-.005-.21-.146-.116-.425.077-.223.119-.337.125-.342 0-.195-.241-.373-.724-.534-.399-.134-.721-.2-.965-.2-.748 0-1.354.296-1.82.889a2.529 2.529 0 00-.274.432v4.719h.752c.317 0 .476.115.476.348s-.157.349-.473.349h-2.106c-.31 0-.465-.116-.465-.349s.155-.348.465-.348h.663v-5.79h-.543c-.318 0-.477-.115-.477-.345 0-.234.157-.353.473-.353h1.235v.738c.565-.657 1.274-.986 2.128-.986.902 0 1.56.254 1.969.763l.025-.1c.033-.127.1-.19.199-.19.045 0 .089.008.133.024.171.066.204.226.099.481zM91.028 68.876c0 .237-.157.356-.473.356h-1.46v-1.377c-.819 1.101-1.835 1.65-3.048 1.65-1.079 0-1.967-.377-2.661-1.132-.695-.755-1.043-1.669-1.043-2.741 0-1.095.345-2.009 1.034-2.741.689-.733 1.579-1.1 2.67-1.1 1.201 0 2.218.551 3.048 1.65v-1.717h1.46c.315 0 .473.119.473.356 0 .238-.158.357-.476.357h-.769v6.097h.769c.318.002.476.115.476.342zm-1.932-3.21c0-.885-.285-1.633-.856-2.244s-1.298-.916-2.18-.916c-.881 0-1.606.305-2.175.916s-.853 1.359-.853 2.244c0 .873.283 1.611.849 2.215.582.619 1.309.929 2.179.929.877 0 1.602-.305 2.176-.912.573-.609.86-1.353.86-2.232zm-3.832-7.333c0 .111.069.225.207.34l1.966 1.685c.128.11.229.166.308.166.237 0 .356-.119.356-.357 0-.11-.066-.224-.199-.34l-1.974-1.7c-.116-.1-.225-.149-.324-.149-.227-.001-.34.118-.34.355zM97.691 59.403c0 .227-.122.34-.365.34-.144 0-.465-.055-.962-.166a2.58 2.58 0 00-.548-.05c-.503 0-.932.116-1.286.349-.409.266-.613.639-.613 1.12v1.717h2.099c.31 0 .464.117.464.353 0 .229-.154.344-.464.344h-2.099v5.127h.572c.31 0 .465.115.465.348s-.155.349-.465.349h-1.883c-.31 0-.465-.116-.465-.349s.155-.348.465-.348h.605V63.41h-.431c-.31 0-.464-.117-.464-.353 0-.229.154-.344.464-.344h.432v-1.717c0-.675.273-1.214.821-1.618.492-.37 1.086-.556 1.783-.556.116 0 .542.062 1.277.183.399.066.598.199.598.398zM100.637 68.884c0 .232-.157.349-.473.349h-2.106c-.31 0-.465-.116-.465-.349s.156-.348.468-.348h.752v-5.79h-.627c-.317 0-.477-.115-.477-.345 0-.234.158-.353.473-.353h1.319v6.487h.663c.315.001.473.116.473.349zm-1.036-9.606c0 .261-.047.504-.142.73-.121.299-.293.448-.514.448-.222 0-.393-.149-.515-.448a1.94 1.94 0 01-.133-.73c0-.248.047-.489.142-.721.121-.299.29-.448.506-.448.221 0 .393.149.514.448.095.227.142.467.142.721zM109.464 67.715c0 .237-.279.539-.837.903a5.367 5.367 0 01-3.012.888c-1.15 0-2.079-.346-2.787-1.036-.707-.691-1.062-1.612-1.062-2.763 0-1.161.359-2.103 1.078-2.824s1.659-1.082 2.82-1.082c1.067 0 1.963.317 2.688.953v-.066c0-.314.116-.473.349-.473.237 0 .356.158.356.473v1.244c0 .315-.119.474-.356.474-.211 0-.327-.14-.35-.417-.033-.422-.379-.791-1.038-1.108a3.865 3.865 0 00-1.694-.383c-.963 0-1.731.291-2.305.872s-.859 1.356-.859 2.325c0 .953.296 1.712.889 2.276.576.56 1.343.839 2.301.839 1.251 0 2.311-.42 3.181-1.261.116-.11.219-.166.307-.166.221 0 .331.11.331.332zM120.582 68.884c0 .232-.157.349-.473.349h-2.106c-.31 0-.465-.116-.465-.349s.156-.348.468-.348h.752v-5.79h-.627c-.317 0-.477-.115-.477-.345 0-.234.158-.353.473-.353h1.319v6.487h.663c.316.001.473.116.473.349zm-1.036-9.606c0 .261-.047.504-.142.73-.121.299-.293.448-.514.448-.222 0-.393-.149-.515-.448a1.94 1.94 0 01-.133-.73c0-.248.047-.489.142-.721.121-.299.29-.448.506-.448.221 0 .393.149.514.448.095.227.142.467.142.721zM136.354 67.715c0 .237-.279.539-.837.903a5.367 5.367 0 01-3.012.888c-1.15 0-2.079-.346-2.787-1.036-.707-.691-1.062-1.612-1.062-2.763 0-1.161.359-2.103 1.078-2.824s1.659-1.082 2.82-1.082c1.067 0 1.963.317 2.688.953v-.066c0-.314.116-.473.349-.473.237 0 .356.158.356.473v1.244c0 .315-.119.474-.356.474-.211 0-.327-.14-.35-.417-.033-.422-.379-.791-1.038-1.108a3.865 3.865 0 00-1.694-.383c-.963 0-1.731.291-2.305.872s-.859 1.356-.859 2.325c0 .953.296 1.712.889 2.276.576.56 1.343.839 2.301.839 1.251 0 2.311-.42 3.181-1.261.116-.11.219-.166.307-.166.22 0 .331.11.331.332zM145.272 65.657c0 1.106-.372 2.024-1.116 2.754-.743.73-1.668 1.095-2.774 1.095-1.117 0-2.046-.362-2.787-1.086-.74-.725-1.111-1.646-1.111-2.763 0-1.111.372-2.032 1.116-2.762.743-.73 1.671-1.095 2.782-1.095s2.038.364 2.779 1.095c.74.73 1.111 1.651 1.111 2.762zm-.705-.004c0-.919-.304-1.675-.909-2.268-.606-.593-1.369-.889-2.288-.889-.92 0-1.683.298-2.289.893-.605.596-.909 1.35-.909 2.264s.305 1.668.914 2.264c.608.595 1.37.893 2.284.893.919 0 1.682-.298 2.288-.893.606-.596.909-1.35.909-2.264zM158.521 68.884c0 .232-.154.349-.463.349h-1.529c-.314 0-.472-.116-.472-.349s.157-.348.473-.348h.415v-4.278c0-.498-.179-.916-.536-1.254s-.785-.507-1.284-.507c-.344 0-.734.163-1.172.49-.244.183-.588.531-1.031 1.047v4.502h.423c.311 0 .465.115.465.348s-.154.349-.463.349h-1.529c-.314 0-.472-.116-.472-.349s.158-.348.474-.348h.414v-4.278c0-.498-.179-.916-.537-1.254a1.806 1.806 0 00-1.286-.507c-.345 0-.736.163-1.175.49-.261.193-.641.584-1.141 1.171v4.378h.456c.31 0 .465.115.465.348s-.154.349-.463.349h-1.604c-.309 0-.463-.116-.463-.349s.155-.348.465-.348h.456v-5.79h-.427c-.312 0-.469-.117-.469-.353 0-.229.154-.345.464-.345h1.12v1.054c.476-.481.855-.808 1.138-.979a2.219 2.219 0 011.179-.323c.919 0 1.63.387 2.134 1.161.061.088.107.171.141.249.979-.94 1.793-1.41 2.44-1.41.919 0 1.63.387 2.134 1.161.249.381.374.776.374 1.186v4.389h.423c.307 0 .463.115.463.348zM167.713 68.884c0 .232-.155.349-.465.349h-1.285v-1.021c-.953.863-1.983 1.294-3.091 1.294-.682 0-1.199-.186-1.554-.556a2.402 2.402 0 01-.689-1.703v-4.501h-.443c-.312 0-.469-.117-.469-.353 0-.229.154-.345.464-.345h1.137v5.201c0 .465.138.841.412 1.128.274.288.643.432 1.103.432 1.138 0 2.182-.521 3.131-1.562v-4.502h-.627c-.312 0-.469-.117-.469-.353 0-.229.155-.345.465-.345h1.319v6.487h.593c.312.002.468.117.468.35zM176.739 68.884c0 .232-.154.349-.463.349h-1.529c-.314 0-.472-.116-.472-.349s.158-.348.473-.348h.415v-4.278c0-.542-.2-.978-.6-1.304-.372-.305-.835-.457-1.39-.457-.566 0-1.068.163-1.507.49-.261.193-.642.584-1.141 1.171v4.378h.456c.31 0 .465.115.465.348s-.154.349-.463.349h-1.604c-.309 0-.463-.116-.463-.349s.155-.348.465-.348h.456v-5.79h-.427c-.312 0-.469-.117-.469-.353 0-.229.154-.345.464-.345h1.12v1.054c.858-.868 1.741-1.302 2.65-1.302 1.03 0 1.797.387 2.301 1.161.249.381.374.776.374 1.186v4.389h.423c.311 0 .466.115.466.348zM180.995 68.884c0 .232-.157.349-.473.349h-2.106c-.31 0-.465-.116-.465-.349s.156-.348.468-.348h.752v-5.79h-.627c-.317 0-.477-.115-.477-.345 0-.234.158-.353.473-.353h1.319v6.487h.663c.316.001.473.116.473.349zm-1.036-9.606c0 .261-.047.504-.142.73-.121.299-.293.448-.514.448-.222 0-.393-.149-.515-.448a1.94 1.94 0 01-.133-.73c0-.248.047-.489.142-.721.121-.299.29-.448.506-.448.221 0 .393.149.514.448.095.227.142.467.142.721zM189.822 67.715c0 .237-.279.539-.837.903a5.367 5.367 0 01-3.012.888c-1.15 0-2.079-.346-2.787-1.036-.707-.691-1.062-1.612-1.062-2.763 0-1.161.359-2.103 1.078-2.824s1.659-1.082 2.82-1.082c1.067 0 1.963.317 2.688.953v-.066c0-.314.116-.473.349-.473.237 0 .356.158.356.473v1.244c0 .315-.119.474-.356.474-.211 0-.327-.14-.35-.417-.033-.422-.379-.791-1.038-1.108a3.865 3.865 0 00-1.694-.383c-.963 0-1.731.291-2.305.872s-.859 1.356-.859 2.325c0 .953.296 1.712.889 2.276.576.56 1.343.839 2.301.839 1.251 0 2.311-.42 3.181-1.261.116-.11.219-.166.307-.166.221 0 .331.11.331.332zM199.637 68.884c0 .232-.154.349-.464.349h-1.469v-1.368c-.813 1.095-1.83 1.642-3.048 1.642-1.074 0-1.966-.381-2.674-1.145-.687-.741-1.03-1.653-1.03-2.737 0-1.089.347-1.999 1.038-2.729.692-.73 1.581-1.095 2.666-1.095 1.19 0 2.206.547 3.048 1.642v-1.717h1.469c.31 0 .464.115.464.345 0 .234-.155.353-.468.353h-.776v6.113h.776c.312-.001.468.114.468.347zm-1.933-3.231c0-.886-.283-1.628-.85-2.226-.577-.62-1.305-.931-2.182-.931-.883 0-1.609.305-2.179.914-.568.608-.854 1.356-.854 2.242s.286 1.634.858 2.242c.571.609 1.296.914 2.174.914.877 0 1.604-.311 2.182-.931.568-.596.851-1.338.851-2.224zM208.456 67.715c0 .237-.279.539-.837.903a5.367 5.367 0 01-3.012.888c-1.15 0-2.079-.346-2.787-1.036-.707-.691-1.062-1.612-1.062-2.763 0-1.161.359-2.103 1.078-2.824s1.659-1.082 2.82-1.082c1.067 0 1.963.317 2.688.953v-.066c0-.314.116-.473.349-.473.237 0 .356.158.356.473v1.244c0 .315-.119.474-.356.474-.211 0-.327-.14-.35-.417-.033-.422-.379-.791-1.038-1.108a3.865 3.865 0 00-1.694-.383c-.963 0-1.731.291-2.305.872s-.859 1.356-.859 2.325c0 .953.296 1.712.889 2.276.576.56 1.343.839 2.301.839 1.251 0 2.311-.42 3.181-1.261.116-.11.219-.166.307-.166.221 0 .331.11.331.332zM212.63 68.884c0 .232-.157.349-.473.349h-2.106c-.31 0-.465-.116-.465-.349s.156-.348.468-.348h.752v-5.79h-.627c-.317 0-.477-.115-.477-.345 0-.234.158-.353.473-.353h1.319v6.487h.663c.316.001.473.116.473.349zm-1.036-9.606c0 .261-.047.504-.142.73-.121.299-.293.448-.514.448-.222 0-.393-.149-.515-.448a1.94 1.94 0 01-.133-.73c0-.248.047-.489.142-.721.121-.299.29-.448.506-.448.221 0 .393.149.514.448.095.227.142.467.142.721zM221.549 65.657c0 1.106-.372 2.024-1.116 2.754-.743.73-1.668 1.095-2.774 1.095-1.117 0-2.046-.362-2.787-1.086-.74-.725-1.111-1.646-1.111-2.763 0-1.111.372-2.032 1.116-2.762.743-.73 1.671-1.095 2.782-1.095s2.038.364 2.779 1.095c.74.73 1.111 1.651 1.111 2.762zm-.705-.004c0-.919-.304-1.675-.909-2.268-.606-.593-1.369-.889-2.288-.889-.92 0-1.683.298-2.289.893-.605.596-.909 1.35-.909 2.264s.305 1.668.914 2.264c.608.595 1.37.893 2.284.893.919 0 1.682-.298 2.288-.893.605-.596.909-1.35.909-2.264zm-1.809-7.32c0 .111-.068.225-.207.341l-1.966 1.683c-.128.111-.229.167-.308.167-.237 0-.356-.119-.356-.357 0-.11.066-.224.199-.34l1.975-1.7c.116-.1.224-.149.323-.149.227-.001.34.118.34.355z"/></g></svg>