<?xml version="1.0" encoding="utf-8"?>
<!-- Generator: Adobe Illustrator 16.0.0, SVG Export Plug-In . SVG Version: 6.00 Build 0)  -->
<!DOCTYPE svg PUBLIC "-//W3C//DTD SVG 1.1//EN" "http://www.w3.org/Graphics/SVG/1.1/DTD/svg11.dtd">
<svg version="1.1" id="Capa_1" xmlns="http://www.w3.org/2000/svg" xmlns:xlink="http://www.w3.org/1999/xlink" x="0px" y="0px"
	 width="225px" height="73px" viewBox="0 0 225 73" enable-background="new 0 0 225 73" xml:space="preserve">
<g>
	
		<path fill="#6B6970" stroke="#6B6970" stroke-width="1.4156" stroke-linecap="round" stroke-linejoin="round" stroke-miterlimit="10" d="
		M222.5,47.858h-4.439c-2.917,0-5.149-0.771-6.693-2.314c-1.545-1.542-2.317-3.726-2.317-6.552V8.419h2.481v8.488H222.5v2.351
		h-10.969v19.981c0,1.917,0.543,3.439,1.633,4.57c1.086,1.134,2.545,1.698,4.374,1.698h4.962V47.858z"/>
	<g>
		<path fill="#F28C40" d="M197.364,1.406c1.729,0,3.026,1.02,3.892,2.112c0.864,1.092,1.298,2.541,1.298,4.348
			c0,2.562-0.828,5.103-2.483,7.626c-1.653,2.524-3.427,3.843-4.567,4.351c-1.301,0.579-2.237,0.585-2.538,0.621
			c-0.301,0.039-0.564,0.056-0.564,0.056s0.953-0.456,1.633-0.915c3.729-2.515,4.408-4.974,4.459-5.652
			c0.034-0.471-0.281-0.994-0.408-1.073c-0.138-0.085-0.935,0.206-2.073,0.055c-1.342-0.178-2.482-0.563-3.385-1.691
			c-0.903-1.128-1.353-2.443-1.353-3.949c0-1.579,0.488-2.876,1.465-3.892S195.259,1.406,197.364,1.406z"/>
		<g>
			<path fill="#6B6970" d="M199.354,1.586c1.646,0,2.824,1.051,3.522,1.931c0.794,1.006,1.196,2.371,1.196,4.057
				c0,2.452-0.81,4.931-2.407,7.368c-1.92,2.931-3.826,3.938-4.365,4.178c-0.149,0.067-0.295,0.125-0.435,0.177
				c3.771-2.76,4.065-5.309,4.087-5.602c0.039-0.513-0.195-1.109-0.435-1.368c-0.162-0.175-0.331-0.211-0.448-0.211
				c-0.083,0-0.2,0.014-0.352,0.036c-0.217,0.031-0.513,0.073-0.9,0.073c-0.245,0-0.499-0.017-0.755-0.051
				c-1.481-0.197-2.373-0.638-3.079-1.52c-0.84-1.05-1.249-2.246-1.249-3.653c0-1.466,0.437-2.632,1.334-3.564
				C195.881,2.592,197.283,1.586,199.354,1.586 M199.354,1.114c-2.105,0-3.648,0.979-4.625,1.995
				c-0.977,1.015-1.466,2.312-1.466,3.892c0,1.506,0.45,2.82,1.353,3.948s2.044,1.514,3.385,1.692
				c0.306,0.041,0.577,0.055,0.817,0.055c0.649,0,1.061-0.109,1.252-0.109c0.001,0,0.003,0,0.004,0c0.149,0,0.444,0.601,0.408,1.071
				c-0.05,0.68-0.729,3.139-4.459,5.653c-0.68,0.459-1.633,0.915-1.633,0.915s0.264-0.017,0.565-0.056
				c0.3-0.038,1.237-0.042,2.537-0.621c1.142-0.507,2.914-1.826,4.567-4.351c1.654-2.523,2.484-5.064,2.484-7.626
				c0-1.807-0.435-3.256-1.298-4.35C202.382,2.133,201.084,1.114,199.354,1.114L199.354,1.114z"/>
		</g>
	</g>
	<g>
		
			<path fill="#6B6970" stroke="#6B6970" stroke-width="1.8875" stroke-linecap="round" stroke-linejoin="round" stroke-miterlimit="10" d="
			M41.41,47.035c0,1.127-0.752,1.69-2.256,1.69h-4.511c-3.651-6.578-7.65-13.574-11.999-20.986h-12.41v17.603h2.215
			c1.529,0,2.296,0.564,2.296,1.693c0,1.127-0.763,1.69-2.288,1.69H4.748c-1.499,0-2.248-0.563-2.248-1.69
			c0-1.129,0.752-1.693,2.256-1.693h2.135V4.982H4.756C3.252,4.982,2.5,4.418,2.5,3.29s0.752-1.691,2.256-1.691h18.045
			c3.974,0,7.411,1.154,10.312,3.464c3.115,2.497,4.673,5.693,4.673,9.587c0,5.479-3.881,9.532-11.641,12.164l10.432,18.528h2.578
			C40.658,45.342,41.41,45.906,41.41,47.035z M34.441,14.508c0-2.691-1.32-4.991-3.96-6.902c-2.397-1.748-4.985-2.623-7.759-2.623
			H10.234v19.375h9.254c6.17,0,10.615-1.804,13.337-5.41C33.902,17.521,34.441,16.043,34.441,14.508z"/>
	</g>
	<g>
		
			<path fill="#6B6970" stroke="#6B6970" stroke-width="1.4156" stroke-linecap="round" stroke-linejoin="round" stroke-miterlimit="10" d="
			M75.713,33.323c0,4.099-1.506,7.651-4.515,10.662c-3.01,3.009-6.649,4.514-10.917,4.514c-4.696,0-8.581-1.516-11.654-4.546
			c-3.073-3.031-4.609-6.766-4.609-11.205c0-4.397,1.472-8.143,4.417-11.239c2.945-3.095,6.724-4.642,11.334-4.642
			c2.817,0,5.421,0.672,7.812,2.017s4.291,3.148,5.699,5.411L51.572,39.022l-1.537-2.051l19.538-13.179
			c-2.436-3.081-5.702-4.62-9.802-4.62c-3.8,0-6.949,1.355-9.447,4.064c-2.498,2.712-3.746,5.924-3.746,9.638
			c0,3.672,1.26,6.81,3.777,9.413c2.518,2.604,5.656,3.905,9.413,3.905c3.628,0,6.756-1.27,9.38-3.81
			c2.627-2.54,3.938-5.561,3.938-9.061H75.713z"/>
		
			<path fill="#F28C40" stroke="#F28C40" stroke-width="1.8875" stroke-linecap="round" stroke-linejoin="round" stroke-miterlimit="10" d="
			M100.162,48.437h-4.631c-4.566,0-8.339-1.466-11.316-4.402c-2.98-2.935-4.469-6.729-4.469-11.382
			c0-4.652,1.488-8.447,4.469-11.384c2.978-2.934,6.75-4.401,11.316-4.401h4.631v2.609h-4.5c-3.914,0-7.111,1.217-9.588,3.651
			c-2.48,2.438-3.719,5.609-3.719,9.524c0,3.957,1.229,7.143,3.686,9.556c2.455,2.413,5.663,3.619,9.621,3.619h4.5V48.437z"/>
		
			<path fill="#F28C40" stroke="#F28C40" stroke-width="1.8875" stroke-linecap="round" stroke-linejoin="round" stroke-miterlimit="10" d="
			M120.777,19.241h-2.673c-2.585,0-4.858,1.203-6.818,3.609c-1.962,2.406-2.941,5.438-2.941,9.091v16.576h-2.539V16.835h2.539v6.083
			c0.846-1.693,2.139-3.13,3.877-4.312c1.738-1.18,3.609-1.771,5.615-1.771h2.94V19.241z"/>
		
			<path fill="#F28C40" stroke="#F28C40" stroke-width="1.8875" stroke-linecap="round" stroke-linejoin="round" stroke-miterlimit="10" d="
			M155.223,33.323c0,4.099-1.505,7.651-4.514,10.662c-3.01,3.009-6.649,4.514-10.918,4.514c-4.697,0-8.58-1.516-11.653-4.546
			c-3.075-3.031-4.61-6.766-4.61-11.205c0-4.397,1.473-8.143,4.418-11.239c2.945-3.095,6.724-4.642,11.334-4.642
			c2.816,0,5.42,0.672,7.812,2.017c2.39,1.345,4.29,3.148,5.698,5.411l-21.706,14.728l-1.537-2.051l19.538-13.179
			c-2.436-3.081-5.702-4.62-9.802-4.62c-3.801,0-6.95,1.355-9.447,4.064c-2.498,2.712-3.747,5.924-3.747,9.638
			c0,3.672,1.259,6.81,3.777,9.413c2.519,2.604,5.657,3.905,9.414,3.905c3.627,0,6.755-1.27,9.38-3.81
			c2.626-2.54,3.938-5.561,3.938-9.061H155.223z"/>
		
			<path fill="#F28C40" stroke="#F28C40" stroke-width="1.8875" stroke-linecap="round" stroke-linejoin="round" stroke-miterlimit="10" d="
			M188.584,47.858h-2.434V32.684c0-3.672-1.163-6.841-3.49-9.51c-2.326-2.667-5.281-4.001-8.868-4.001
			c-3.201,0-6.042,1.302-8.516,3.905c-2.476,2.604-3.715,5.806-3.715,9.605c0,3.799,1.239,7.001,3.715,9.604
			c2.474,2.604,5.314,3.905,8.516,3.905c1.921,0,3.627-0.361,5.122-1.088c1.495-0.725,2.946-1.835,4.355-3.33v2.881
			c-1.367,1.152-2.766,2.081-4.195,2.787c-1.43,0.703-3.191,1.056-5.282,1.056c-4.141,0-7.643-1.494-10.501-4.481
			c-2.86-2.987-4.29-6.767-4.29-11.334c0-4.525,1.419-8.293,4.258-11.303c2.838-3.01,6.349-4.514,10.533-4.514
			c4.14,0,7.642,1.494,10.501,4.482c2.859,2.989,4.291,6.766,4.291,11.334V47.858z"/>
		<g>
			<path fill="#6B6970" d="M11.896,68.884c0,0.232-0.157,0.349-0.473,0.349h-1.302v-1.385c-0.808,1.105-1.833,1.658-3.078,1.658
				c-1.426,0-2.485-0.644-3.177-1.933c-0.337-0.625-0.506-1.264-0.506-1.916c0-0.68,0.167-1.324,0.502-1.933
				s0.791-1.081,1.369-1.418c0.577-0.338,1.185-0.506,1.82-0.506c1.217,0,2.239,0.553,3.069,1.658V59.52H9.441
				c-0.315,0-0.473-0.117-0.473-0.353c0-0.229,0.157-0.345,0.473-0.345h1.386v9.714h0.597
				C11.739,68.536,11.896,68.651,11.896,68.884z M10.122,65.653c0-0.897-0.283-1.647-0.848-2.251s-1.293-0.905-2.185-0.905
				s-1.621,0.302-2.188,0.905S4.05,64.756,4.05,65.653c0,0.892,0.285,1.641,0.855,2.247c0.57,0.605,1.299,0.909,2.185,0.909
				c0.892,0,1.62-0.302,2.185-0.905S10.122,66.551,10.122,65.653z"/>
			<path fill="#6B6970" d="M16.07,68.884c0,0.232-0.157,0.349-0.473,0.349h-2.106c-0.31,0-0.465-0.116-0.465-0.349
				s0.156-0.348,0.468-0.348h0.752v-5.79h-0.627c-0.317,0-0.477-0.115-0.477-0.345c0-0.234,0.158-0.353,0.473-0.353h1.319v6.487
				h0.663C15.913,68.536,16.07,68.651,16.07,68.884z M15.034,59.278c0,0.261-0.047,0.504-0.142,0.73
				c-0.121,0.299-0.293,0.448-0.514,0.448c-0.222,0-0.393-0.149-0.515-0.448c-0.089-0.221-0.133-0.465-0.133-0.73
				c0-0.248,0.047-0.489,0.142-0.721c0.121-0.299,0.29-0.448,0.506-0.448c0.221,0,0.393,0.149,0.514,0.448
				C14.987,58.784,15.034,59.024,15.034,59.278z"/>
			<path fill="#6B6970" d="M23.861,67.23c0,0.775-0.388,1.368-1.161,1.777c-0.625,0.332-1.358,0.498-2.198,0.498
				c-1.101,0-2.002-0.279-2.704-0.838c-0.398-0.459-0.598-0.893-0.598-1.302c0-0.332,0.083-0.498,0.249-0.498
				c0.237,0,0.356,0.128,0.356,0.382c0,0.559,0.371,0.99,1.113,1.294c0.432,0.177,0.953,0.266,1.562,0.266
				c0.626,0,1.188-0.108,1.687-0.323c0.671-0.288,1.006-0.705,1.006-1.253c0-0.857-0.887-1.377-2.658-1.56
				c-0.676-0.071-1.172-0.149-1.487-0.232c-1.047-0.281-1.569-0.846-1.569-1.691c0-0.658,0.351-1.167,1.053-1.526
				c0.553-0.282,1.194-0.423,1.925-0.423c0.962,0,1.744,0.234,2.348,0.705c0.441,0.48,0.663,0.893,0.663,1.235
				c0,0.293-0.105,0.439-0.315,0.439s-0.326-0.13-0.348-0.392c-0.033-0.333-0.205-0.608-0.515-0.825
				c-0.448-0.312-1.048-0.467-1.8-0.467c-0.78,0-1.386,0.158-1.816,0.474c-0.327,0.238-0.49,0.504-0.49,0.797
				c0,0.332,0.194,0.609,0.581,0.83c0.271,0.155,0.774,0.274,1.51,0.357c0.984,0.111,1.656,0.23,2.016,0.357
				C23.33,65.688,23.861,66.328,23.861,67.23z"/>
			<path fill="#6B6970" d="M31.651,67.23c0,0.775-0.388,1.368-1.161,1.777c-0.625,0.332-1.358,0.498-2.198,0.498
				c-1.101,0-2.002-0.279-2.704-0.838c-0.398-0.459-0.598-0.893-0.598-1.302c0-0.332,0.083-0.498,0.249-0.498
				c0.237,0,0.356,0.128,0.356,0.382c0,0.559,0.371,0.99,1.113,1.294c0.432,0.177,0.953,0.266,1.562,0.266
				c0.626,0,1.188-0.108,1.687-0.323c0.671-0.288,1.006-0.705,1.006-1.253c0-0.857-0.887-1.377-2.658-1.56
				c-0.676-0.071-1.172-0.149-1.487-0.232c-1.047-0.281-1.569-0.846-1.569-1.691c0-0.658,0.351-1.167,1.053-1.526
				c0.553-0.282,1.194-0.423,1.925-0.423c0.962,0,1.744,0.234,2.348,0.705c0.441,0.48,0.663,0.893,0.663,1.235
				c0,0.293-0.105,0.439-0.315,0.439s-0.326-0.13-0.348-0.392c-0.033-0.333-0.205-0.608-0.515-0.825
				c-0.448-0.312-1.048-0.467-1.8-0.467c-0.78,0-1.386,0.158-1.816,0.474c-0.327,0.238-0.49,0.504-0.49,0.797
				c0,0.332,0.194,0.609,0.581,0.83c0.271,0.155,0.774,0.274,1.51,0.357c0.984,0.111,1.656,0.23,2.016,0.357
				C31.12,65.688,31.651,66.328,31.651,67.23z"/>
			<path fill="#6B6970" d="M40.587,65.799h-7.101c0.122,0.937,0.496,1.673,1.124,2.208s1.414,0.803,2.36,0.803
				c1.166,0,2.01-0.312,2.529-0.938c0.066-0.083,0.158-0.124,0.273-0.124c0.222,0,0.332,0.116,0.332,0.348
				c0,0.116-0.196,0.365-0.589,0.747c-0.154,0.149-0.412,0.276-0.771,0.382c-0.652,0.188-1.244,0.281-1.774,0.281
				c-1.206,0-2.201-0.364-2.986-1.095c-0.802-0.746-1.203-1.72-1.203-2.92c0-1.1,0.379-1.996,1.137-2.688
				c0.735-0.669,1.659-1.003,2.771-1.003c1.194,0,2.146,0.366,2.854,1.101C40.249,63.636,40.598,64.601,40.587,65.799z
				 M39.882,65.102c-0.139-0.81-0.501-1.45-1.087-1.922c-0.575-0.455-1.277-0.683-2.106-0.683c-0.813,0-1.513,0.234-2.099,0.703
				s-0.951,1.103-1.095,1.901H39.882z"/>
			<path fill="#6B6970" d="M49.638,68.884c0,0.232-0.154,0.349-0.463,0.349h-1.529c-0.314,0-0.472-0.116-0.472-0.349
				s0.158-0.348,0.473-0.348h0.415v-4.278c0-0.542-0.2-0.978-0.6-1.304c-0.372-0.305-0.835-0.457-1.39-0.457
				c-0.566,0-1.068,0.163-1.507,0.49c-0.261,0.193-0.642,0.584-1.141,1.171v4.378h0.456c0.31,0,0.465,0.115,0.465,0.348
				s-0.154,0.349-0.463,0.349h-1.604c-0.309,0-0.463-0.116-0.463-0.349s0.155-0.348,0.465-0.348h0.456v-5.79H42.31
				c-0.312,0-0.469-0.117-0.469-0.353c0-0.229,0.154-0.345,0.464-0.345h1.12v1.054c0.858-0.868,1.741-1.302,2.65-1.302
				c1.03,0,1.797,0.387,2.301,1.161c0.249,0.381,0.374,0.776,0.374,1.186v4.389h0.423C49.482,68.536,49.638,68.651,49.638,68.884z"
				/>
			<path fill="#6B6970" d="M58.025,68.536l-0.05-0.017v1.269c0,1.14-0.485,1.958-1.457,2.455c-0.337,0.172-0.737,0.258-1.201,0.258
				h-2.792c-0.309,0-0.464-0.115-0.464-0.345c0-0.235,0.155-0.353,0.465-0.353h2.778c0.592,0,1.07-0.188,1.436-0.564
				c0.365-0.376,0.547-0.859,0.547-1.451v-1.543c-0.939,0.841-1.954,1.261-3.044,1.261c-0.68,0-1.197-0.186-1.551-0.556
				c-0.459-0.487-0.688-1.055-0.688-1.703v-4.501h-0.693c-0.312,0-0.468-0.117-0.468-0.353c0-0.229,0.154-0.345,0.464-0.345h1.386
				v5.201c0,0.465,0.137,0.841,0.411,1.128c0.274,0.288,0.642,0.432,1.101,0.432c1.119,0,2.147-0.506,3.083-1.519V62.82h0.042
				v-0.074h-0.705c-0.31,0-0.465-0.117-0.465-0.353c0-0.229,0.155-0.345,0.465-0.345h1.401V68.536z"/>
			<path fill="#6B6970" d="M74.277,62.401c0,0.229-0.156,0.345-0.468,0.345h-0.61v6.965c0,1.179-0.603,2.031-1.809,2.558
				c-0.254,0.11-0.595,0.166-1.02,0.166h-2.556c-0.31,0-0.464-0.115-0.464-0.345c0-0.235,0.154-0.353,0.465-0.353H70.4
				c0.848,0,1.49-0.412,1.928-1.235c0.122-0.228,0.183-0.523,0.183-0.888v-2.091c-0.748,1.023-1.711,1.535-2.891,1.535
				c-1.019,0-1.863-0.354-2.533-1.062c-0.658-0.69-0.988-1.548-0.988-2.571c0-1.022,0.332-1.883,0.997-2.579
				c0.664-0.697,1.506-1.045,2.524-1.045c1.18,0,2.143,0.509,2.891,1.525v-1.277h1.302C74.122,62.049,74.277,62.167,74.277,62.401z
				 M72.511,65.425c0-0.843-0.268-1.541-0.802-2.096s-1.22-0.832-2.056-0.832c-0.831,0-1.514,0.278-2.048,0.836
				s-0.802,1.255-0.802,2.092c0,0.844,0.266,1.543,0.798,2.101c0.531,0.558,1.216,0.836,2.052,0.836s1.521-0.278,2.056-0.836
				S72.511,66.269,72.511,65.425z"/>
			<path fill="#6B6970" d="M81.77,62.779l-0.314,0.755c-0.133,0.315-0.288,0.47-0.465,0.464c-0.172-0.005-0.21-0.146-0.116-0.425
				c0.077-0.223,0.119-0.337,0.125-0.342c0-0.195-0.241-0.373-0.724-0.534c-0.399-0.134-0.721-0.2-0.965-0.2
				c-0.748,0-1.354,0.296-1.82,0.889c-0.105,0.133-0.196,0.277-0.274,0.432v4.719h0.752c0.317,0,0.476,0.115,0.476,0.348
				s-0.157,0.349-0.473,0.349h-2.106c-0.31,0-0.465-0.116-0.465-0.349s0.155-0.348,0.465-0.348h0.663v-5.79h-0.543
				c-0.318,0-0.477-0.115-0.477-0.345c0-0.234,0.157-0.353,0.473-0.353h1.235v0.738c0.565-0.657,1.274-0.986,2.128-0.986
				c0.902,0,1.56,0.254,1.969,0.763l0.025-0.1c0.033-0.127,0.1-0.19,0.199-0.19c0.045,0,0.089,0.008,0.133,0.024
				C81.842,62.364,81.875,62.524,81.77,62.779z"/>
			<path fill="#6B6970" d="M91.028,68.876c0,0.237-0.157,0.356-0.473,0.356h-1.46v-1.377c-0.819,1.101-1.835,1.65-3.048,1.65
				c-1.079,0-1.967-0.377-2.661-1.132c-0.695-0.755-1.043-1.669-1.043-2.741c0-1.095,0.345-2.009,1.034-2.741
				c0.689-0.733,1.579-1.1,2.67-1.1c1.201,0,2.218,0.551,3.048,1.65v-1.717h1.46c0.315,0,0.473,0.119,0.473,0.356
				c0,0.238-0.158,0.357-0.476,0.357h-0.769v6.097h0.769C90.87,68.536,91.028,68.649,91.028,68.876z M89.096,65.666
				c0-0.885-0.285-1.633-0.856-2.244s-1.298-0.916-2.18-0.916c-0.881,0-1.606,0.305-2.175,0.916s-0.853,1.359-0.853,2.244
				c0,0.873,0.283,1.611,0.849,2.215c0.582,0.619,1.309,0.929,2.179,0.929c0.877,0,1.602-0.305,2.176-0.912
				C88.809,67.289,89.096,66.545,89.096,65.666z M85.264,58.333c0,0.111,0.069,0.225,0.207,0.34l1.966,1.685
				c0.128,0.11,0.229,0.166,0.308,0.166c0.237,0,0.356-0.119,0.356-0.357c0-0.11-0.066-0.224-0.199-0.34l-1.974-1.7
				c-0.116-0.1-0.225-0.149-0.324-0.149C85.377,57.977,85.264,58.096,85.264,58.333z"/>
			<path fill="#6B6970" d="M97.691,59.403c0,0.227-0.122,0.34-0.365,0.34c-0.144,0-0.465-0.055-0.962-0.166
				c-0.149-0.033-0.332-0.05-0.548-0.05c-0.503,0-0.932,0.116-1.286,0.349c-0.409,0.266-0.613,0.639-0.613,1.12v1.717h2.099
				c0.31,0,0.464,0.117,0.464,0.353c0,0.229-0.154,0.344-0.464,0.344h-2.099v5.127h0.572c0.31,0,0.465,0.115,0.465,0.348
				s-0.155,0.349-0.465,0.349h-1.883c-0.31,0-0.465-0.116-0.465-0.349s0.155-0.348,0.465-0.348h0.605v-5.127H92.78
				c-0.31,0-0.464-0.117-0.464-0.353c0-0.229,0.154-0.344,0.464-0.344h0.432v-1.717c0-0.675,0.273-1.214,0.821-1.618
				c0.492-0.37,1.086-0.556,1.783-0.556c0.116,0,0.542,0.062,1.277,0.183C97.492,59.071,97.691,59.204,97.691,59.403z"/>
			<path fill="#6B6970" d="M100.637,68.884c0,0.232-0.157,0.349-0.473,0.349h-2.106c-0.31,0-0.465-0.116-0.465-0.349
				s0.156-0.348,0.468-0.348h0.752v-5.79h-0.627c-0.317,0-0.477-0.115-0.477-0.345c0-0.234,0.158-0.353,0.473-0.353h1.319v6.487
				h0.663C100.479,68.536,100.637,68.651,100.637,68.884z M99.601,59.278c0,0.261-0.047,0.504-0.142,0.73
				c-0.121,0.299-0.293,0.448-0.514,0.448c-0.222,0-0.393-0.149-0.515-0.448c-0.089-0.221-0.133-0.465-0.133-0.73
				c0-0.248,0.047-0.489,0.142-0.721c0.121-0.299,0.29-0.448,0.506-0.448c0.221,0,0.393,0.149,0.514,0.448
				C99.554,58.784,99.601,59.024,99.601,59.278z"/>
			<path fill="#6B6970" d="M109.464,67.715c0,0.237-0.279,0.539-0.837,0.903c-0.901,0.592-1.905,0.888-3.012,0.888
				c-1.15,0-2.079-0.346-2.787-1.036c-0.707-0.691-1.062-1.612-1.062-2.763c0-1.161,0.359-2.103,1.078-2.824s1.659-1.082,2.82-1.082
				c1.067,0,1.963,0.317,2.688,0.953v-0.066c0-0.314,0.116-0.473,0.349-0.473c0.237,0,0.356,0.158,0.356,0.473v1.244
				c0,0.315-0.119,0.474-0.356,0.474c-0.211,0-0.327-0.14-0.35-0.417c-0.033-0.422-0.379-0.791-1.038-1.108
				c-0.531-0.255-1.096-0.383-1.694-0.383c-0.963,0-1.731,0.291-2.305,0.872s-0.859,1.356-0.859,2.325
				c0,0.953,0.296,1.712,0.889,2.276c0.576,0.56,1.343,0.839,2.301,0.839c1.251,0,2.311-0.42,3.181-1.261
				c0.116-0.11,0.219-0.166,0.307-0.166C109.354,67.383,109.464,67.493,109.464,67.715z"/>
			<path fill="#6B6970" d="M120.582,68.884c0,0.232-0.157,0.349-0.473,0.349h-2.106c-0.31,0-0.465-0.116-0.465-0.349
				s0.156-0.348,0.468-0.348h0.752v-5.79h-0.627c-0.317,0-0.477-0.115-0.477-0.345c0-0.234,0.158-0.353,0.473-0.353h1.319v6.487
				h0.663C120.425,68.536,120.582,68.651,120.582,68.884z M119.546,59.278c0,0.261-0.047,0.504-0.142,0.73
				c-0.121,0.299-0.293,0.448-0.514,0.448c-0.222,0-0.393-0.149-0.515-0.448c-0.089-0.221-0.133-0.465-0.133-0.73
				c0-0.248,0.047-0.489,0.142-0.721c0.121-0.299,0.29-0.448,0.506-0.448c0.221,0,0.393,0.149,0.514,0.448
				C119.499,58.784,119.546,59.024,119.546,59.278z"/>
			<path fill="#6B6970" d="M136.354,67.715c0,0.237-0.279,0.539-0.837,0.903c-0.901,0.592-1.905,0.888-3.012,0.888
				c-1.15,0-2.079-0.346-2.787-1.036c-0.707-0.691-1.062-1.612-1.062-2.763c0-1.161,0.359-2.103,1.078-2.824s1.659-1.082,2.82-1.082
				c1.067,0,1.963,0.317,2.688,0.953v-0.066c0-0.314,0.116-0.473,0.349-0.473c0.237,0,0.356,0.158,0.356,0.473v1.244
				c0,0.315-0.119,0.474-0.356,0.474c-0.211,0-0.327-0.14-0.35-0.417c-0.033-0.422-0.379-0.791-1.038-1.108
				c-0.531-0.255-1.096-0.383-1.694-0.383c-0.963,0-1.731,0.291-2.305,0.872s-0.859,1.356-0.859,2.325
				c0,0.953,0.296,1.712,0.889,2.276c0.576,0.56,1.343,0.839,2.301,0.839c1.251,0,2.311-0.42,3.181-1.261
				c0.116-0.11,0.219-0.166,0.307-0.166C136.243,67.383,136.354,67.493,136.354,67.715z"/>
			<path fill="#6B6970" d="M145.272,65.657c0,1.106-0.372,2.024-1.116,2.754c-0.743,0.73-1.668,1.095-2.774,1.095
				c-1.117,0-2.046-0.362-2.787-1.086c-0.74-0.725-1.111-1.646-1.111-2.763c0-1.111,0.372-2.032,1.116-2.762
				c0.743-0.73,1.671-1.095,2.782-1.095s2.038,0.364,2.779,1.095C144.901,63.625,145.272,64.546,145.272,65.657z M144.567,65.653
				c0-0.919-0.304-1.675-0.909-2.268c-0.606-0.593-1.369-0.889-2.288-0.889c-0.92,0-1.683,0.298-2.289,0.893
				c-0.605,0.596-0.909,1.35-0.909,2.264s0.305,1.668,0.914,2.264c0.608,0.595,1.37,0.893,2.284,0.893
				c0.919,0,1.682-0.298,2.288-0.893C144.264,67.321,144.567,66.567,144.567,65.653z"/>
			<path fill="#6B6970" d="M158.521,68.884c0,0.232-0.154,0.349-0.463,0.349h-1.529c-0.314,0-0.472-0.116-0.472-0.349
				s0.157-0.348,0.473-0.348h0.415v-4.278c0-0.498-0.179-0.916-0.536-1.254s-0.785-0.507-1.284-0.507
				c-0.344,0-0.734,0.163-1.172,0.49c-0.244,0.183-0.588,0.531-1.031,1.047v4.502h0.423c0.311,0,0.465,0.115,0.465,0.348
				s-0.154,0.349-0.463,0.349h-1.529c-0.314,0-0.472-0.116-0.472-0.349s0.158-0.348,0.474-0.348h0.414v-4.278
				c0-0.498-0.179-0.916-0.537-1.254c-0.357-0.338-0.787-0.507-1.286-0.507c-0.345,0-0.736,0.163-1.175,0.49
				c-0.261,0.193-0.641,0.584-1.141,1.171v4.378h0.456c0.31,0,0.465,0.115,0.465,0.348s-0.154,0.349-0.463,0.349h-1.604
				c-0.309,0-0.463-0.116-0.463-0.349s0.155-0.348,0.465-0.348h0.456v-5.79h-0.427c-0.312,0-0.469-0.117-0.469-0.353
				c0-0.229,0.154-0.345,0.464-0.345h1.12v1.054c0.476-0.481,0.855-0.808,1.138-0.979c0.354-0.216,0.747-0.323,1.179-0.323
				c0.919,0,1.63,0.387,2.134,1.161c0.061,0.088,0.107,0.171,0.141,0.249c0.979-0.94,1.793-1.41,2.44-1.41
				c0.919,0,1.63,0.387,2.134,1.161c0.249,0.381,0.374,0.776,0.374,1.186v4.389h0.423C158.365,68.536,158.521,68.651,158.521,68.884
				z"/>
			<path fill="#6B6970" d="M167.713,68.884c0,0.232-0.155,0.349-0.465,0.349h-1.285v-1.021c-0.953,0.863-1.983,1.294-3.091,1.294
				c-0.682,0-1.199-0.186-1.554-0.556c-0.46-0.487-0.689-1.055-0.689-1.703v-4.501h-0.443c-0.312,0-0.469-0.117-0.469-0.353
				c0-0.229,0.154-0.345,0.464-0.345h1.137v5.201c0,0.465,0.138,0.841,0.412,1.128c0.274,0.288,0.643,0.432,1.103,0.432
				c1.138,0,2.182-0.521,3.131-1.562v-4.502h-0.627c-0.312,0-0.469-0.117-0.469-0.353c0-0.229,0.155-0.345,0.465-0.345h1.319v6.487
				h0.593C167.557,68.536,167.713,68.651,167.713,68.884z"/>
			<path fill="#6B6970" d="M176.739,68.884c0,0.232-0.154,0.349-0.463,0.349h-1.529c-0.314,0-0.472-0.116-0.472-0.349
				s0.158-0.348,0.473-0.348h0.415v-4.278c0-0.542-0.2-0.978-0.6-1.304c-0.372-0.305-0.835-0.457-1.39-0.457
				c-0.566,0-1.068,0.163-1.507,0.49c-0.261,0.193-0.642,0.584-1.141,1.171v4.378h0.456c0.31,0,0.465,0.115,0.465,0.348
				s-0.154,0.349-0.463,0.349h-1.604c-0.309,0-0.463-0.116-0.463-0.349s0.155-0.348,0.465-0.348h0.456v-5.79h-0.427
				c-0.312,0-0.469-0.117-0.469-0.353c0-0.229,0.154-0.345,0.464-0.345h1.12v1.054c0.858-0.868,1.741-1.302,2.65-1.302
				c1.03,0,1.797,0.387,2.301,1.161c0.249,0.381,0.374,0.776,0.374,1.186v4.389h0.423C176.584,68.536,176.739,68.651,176.739,68.884
				z"/>
			<path fill="#6B6970" d="M180.995,68.884c0,0.232-0.157,0.349-0.473,0.349h-2.106c-0.31,0-0.465-0.116-0.465-0.349
				s0.156-0.348,0.468-0.348h0.752v-5.79h-0.627c-0.317,0-0.477-0.115-0.477-0.345c0-0.234,0.158-0.353,0.473-0.353h1.319v6.487
				h0.663C180.838,68.536,180.995,68.651,180.995,68.884z M179.959,59.278c0,0.261-0.047,0.504-0.142,0.73
				c-0.121,0.299-0.293,0.448-0.514,0.448c-0.222,0-0.393-0.149-0.515-0.448c-0.089-0.221-0.133-0.465-0.133-0.73
				c0-0.248,0.047-0.489,0.142-0.721c0.121-0.299,0.29-0.448,0.506-0.448c0.221,0,0.393,0.149,0.514,0.448
				C179.912,58.784,179.959,59.024,179.959,59.278z"/>
			<path fill="#6B6970" d="M189.822,67.715c0,0.237-0.279,0.539-0.837,0.903c-0.901,0.592-1.905,0.888-3.012,0.888
				c-1.15,0-2.079-0.346-2.787-1.036c-0.707-0.691-1.062-1.612-1.062-2.763c0-1.161,0.359-2.103,1.078-2.824s1.659-1.082,2.82-1.082
				c1.067,0,1.963,0.317,2.688,0.953v-0.066c0-0.314,0.116-0.473,0.349-0.473c0.237,0,0.356,0.158,0.356,0.473v1.244
				c0,0.315-0.119,0.474-0.356,0.474c-0.211,0-0.327-0.14-0.35-0.417c-0.033-0.422-0.379-0.791-1.038-1.108
				c-0.531-0.255-1.096-0.383-1.694-0.383c-0.963,0-1.731,0.291-2.305,0.872s-0.859,1.356-0.859,2.325
				c0,0.953,0.296,1.712,0.889,2.276c0.576,0.56,1.343,0.839,2.301,0.839c1.251,0,2.311-0.42,3.181-1.261
				c0.116-0.11,0.219-0.166,0.307-0.166C189.712,67.383,189.822,67.493,189.822,67.715z"/>
			<path fill="#6B6970" d="M199.637,68.884c0,0.232-0.154,0.349-0.464,0.349h-1.469v-1.368c-0.813,1.095-1.83,1.642-3.048,1.642
				c-1.074,0-1.966-0.381-2.674-1.145c-0.687-0.741-1.03-1.653-1.03-2.737c0-1.089,0.347-1.999,1.038-2.729
				c0.692-0.73,1.581-1.095,2.666-1.095c1.19,0,2.206,0.547,3.048,1.642v-1.717h1.469c0.31,0,0.464,0.115,0.464,0.345
				c0,0.234-0.155,0.353-0.468,0.353h-0.776v6.113h0.776C199.481,68.536,199.637,68.651,199.637,68.884z M197.704,65.653
				c0-0.886-0.283-1.628-0.85-2.226c-0.577-0.62-1.305-0.931-2.182-0.931c-0.883,0-1.609,0.305-2.179,0.914
				c-0.568,0.608-0.854,1.356-0.854,2.242s0.286,1.634,0.858,2.242c0.571,0.609,1.296,0.914,2.174,0.914
				c0.877,0,1.604-0.311,2.182-0.931C197.421,67.281,197.704,66.539,197.704,65.653z"/>
			<path fill="#6B6970" d="M208.456,67.715c0,0.237-0.279,0.539-0.837,0.903c-0.901,0.592-1.905,0.888-3.012,0.888
				c-1.15,0-2.079-0.346-2.787-1.036c-0.707-0.691-1.062-1.612-1.062-2.763c0-1.161,0.359-2.103,1.078-2.824s1.659-1.082,2.82-1.082
				c1.067,0,1.963,0.317,2.688,0.953v-0.066c0-0.314,0.116-0.473,0.349-0.473c0.237,0,0.356,0.158,0.356,0.473v1.244
				c0,0.315-0.119,0.474-0.356,0.474c-0.211,0-0.327-0.14-0.35-0.417c-0.033-0.422-0.379-0.791-1.038-1.108
				c-0.531-0.255-1.096-0.383-1.694-0.383c-0.963,0-1.731,0.291-2.305,0.872s-0.859,1.356-0.859,2.325
				c0,0.953,0.296,1.712,0.889,2.276c0.576,0.56,1.343,0.839,2.301,0.839c1.251,0,2.311-0.42,3.181-1.261
				c0.116-0.11,0.219-0.166,0.307-0.166C208.346,67.383,208.456,67.493,208.456,67.715z"/>
			<path fill="#6B6970" d="M212.63,68.884c0,0.232-0.157,0.349-0.473,0.349h-2.106c-0.31,0-0.465-0.116-0.465-0.349
				s0.156-0.348,0.468-0.348h0.752v-5.79h-0.627c-0.317,0-0.477-0.115-0.477-0.345c0-0.234,0.158-0.353,0.473-0.353h1.319v6.487
				h0.663C212.473,68.536,212.63,68.651,212.63,68.884z M211.594,59.278c0,0.261-0.047,0.504-0.142,0.73
				c-0.121,0.299-0.293,0.448-0.514,0.448c-0.222,0-0.393-0.149-0.515-0.448c-0.089-0.221-0.133-0.465-0.133-0.73
				c0-0.248,0.047-0.489,0.142-0.721c0.121-0.299,0.29-0.448,0.506-0.448c0.221,0,0.393,0.149,0.514,0.448
				C211.547,58.784,211.594,59.024,211.594,59.278z"/>
			<path fill="#6B6970" d="M221.549,65.657c0,1.106-0.372,2.024-1.116,2.754c-0.743,0.73-1.668,1.095-2.774,1.095
				c-1.117,0-2.046-0.362-2.787-1.086c-0.74-0.725-1.111-1.646-1.111-2.763c0-1.111,0.372-2.032,1.116-2.762
				c0.743-0.73,1.671-1.095,2.782-1.095s2.038,0.364,2.779,1.095C221.178,63.625,221.549,64.546,221.549,65.657z M220.844,65.653
				c0-0.919-0.304-1.675-0.909-2.268c-0.606-0.593-1.369-0.889-2.288-0.889c-0.92,0-1.683,0.298-2.289,0.893
				c-0.605,0.596-0.909,1.35-0.909,2.264s0.305,1.668,0.914,2.264c0.608,0.595,1.37,0.893,2.284,0.893
				c0.919,0,1.682-0.298,2.288-0.893C220.54,67.321,220.844,66.567,220.844,65.653z M219.035,58.333
				c0,0.111-0.068,0.225-0.207,0.341l-1.966,1.683c-0.128,0.111-0.229,0.167-0.308,0.167c-0.237,0-0.356-0.119-0.356-0.357
				c0-0.11,0.066-0.224,0.199-0.34l1.975-1.7c0.116-0.1,0.224-0.149,0.323-0.149C218.922,57.977,219.035,58.096,219.035,58.333z"/>
		</g>
	</g>
</g>
<g>
</g>
<g>
</g>
<g>
</g>
<g>
</g>
<g>
</g>
<g>
</g>
</svg>
